<svg width="165" height="100" viewBox="0 0 165 100" fill="none" xmlns="http://www.w3.org/2000/svg"><g id="logo 1" clip-path="url(#clip0_380_2)"><g id="Logo"><g id="icon" style=" transform-origin: center; transform-box: fill-box; animation: storm 2s linear infinite alternate;"><path id="Path 1" d="M87.862 27.12C87.6378 26.7959 87.4923 26.4239 87.4371 26.0336C87.3819 25.6434 87.4185 25.2456 87.544 24.872C87.8029 24.1259 88.2484 23.4584 88.838 22.933C89.3103 23.3273 89.6474 23.8595 89.802 24.455C89.9496 24.8389 90.0094 25.251 89.977 25.661C89.9 26.0447 89.7221 26.4008 89.4616 26.6928C89.2011 26.9848 88.8675 27.202 88.495 27.322C88.3876 27.3695 88.2702 27.3901 88.153 27.382C88.0937 27.3776 88.0372 27.3551 87.9911 27.3175C87.945 27.28 87.9114 27.2292 87.895 27.172L87.862 27.12Z" fill="#52B214"/><path id="Path 2" d="M90.3741 34.929C90.2584 34.5521 90.2324 34.1535 90.298 33.7648C90.3636 33.3761 90.5191 33.008 90.7521 32.69C91.2241 32.0569 91.8508 31.5556 92.5721 31.234C92.9026 31.7524 93.0627 32.3611 93.0301 32.975C93.0538 33.3849 92.9854 33.7949 92.8301 34.175C92.6402 34.5178 92.3622 34.8037 92.0248 35.003C91.6875 35.2024 91.303 35.308 90.9111 35.309C90.7943 35.3216 90.6762 35.3054 90.5671 35.262C90.513 35.2395 90.4671 35.2012 90.4351 35.1521C90.4032 35.1031 90.3868 35.0455 90.3881 34.987L90.3741 34.929Z" fill="#52B214"/><path id="Path 4" d="M107.414 17.016C107.711 16.7559 108.064 16.5687 108.446 16.4694C108.828 16.3701 109.228 16.3614 109.614 16.444C110.385 16.6156 111.099 16.9823 111.688 17.509C111.351 18.0227 110.861 18.4181 110.288 18.64C109.924 18.8305 109.521 18.9368 109.11 18.951C108.718 18.9196 108.341 18.7836 108.02 18.5573C107.698 18.3309 107.443 18.0225 107.281 17.664C107.221 17.5626 107.186 17.4479 107.181 17.33C107.179 17.2715 107.196 17.2138 107.227 17.1645C107.259 17.1153 107.305 17.0768 107.359 17.054L107.414 17.016Z" fill="#52B214"/><path id="Path 5" d="M113.479 21.862C113.272 21.5267 113.146 21.1477 113.111 20.7552C113.077 20.3627 113.134 19.9674 113.279 19.601C113.579 18.8691 114.061 18.226 114.679 17.733C115.128 18.1522 115.435 18.701 115.558 19.303C115.684 19.6946 115.721 20.1093 115.666 20.517C115.568 20.8964 115.371 21.2428 115.095 21.5206C114.819 21.7984 114.474 21.9973 114.095 22.097C113.985 22.1393 113.866 22.1538 113.749 22.139C113.691 22.1305 113.637 22.1047 113.594 22.0649C113.551 22.0251 113.521 21.9732 113.508 21.916L113.479 21.862Z" fill="#52B214"/><path id="Path 6" d="M108.465 10.649C108.469 10.2549 108.565 9.86725 108.745 9.51676C108.925 9.16627 109.185 8.86265 109.503 8.63C110.145 8.16996 110.895 7.88215 111.68 7.79401C111.838 8.38891 111.806 9.01829 111.588 9.594C111.486 9.99288 111.297 10.364 111.033 10.68C110.748 10.9487 110.396 11.1366 110.015 11.2245C109.633 11.3124 109.235 11.297 108.861 11.18C108.746 11.1564 108.639 11.1053 108.548 11.031C108.503 10.9928 108.471 10.9421 108.455 10.8854C108.44 10.8287 108.442 10.7686 108.461 10.713L108.465 10.649Z" fill="#52B214"/><path id="Path 7" d="M100.479 11.116C100.505 10.7228 100.622 10.3411 100.821 10.0012C101.021 9.66132 101.296 9.3726 101.627 9.158C102.294 8.73494 103.058 8.48917 103.846 8.444C103.969 9.04532 103.901 9.67014 103.652 10.231C103.529 10.6236 103.319 10.9837 103.039 11.285C102.739 11.5385 102.377 11.7073 101.99 11.7738C101.604 11.8402 101.206 11.802 100.839 11.663C100.727 11.6323 100.624 11.5754 100.539 11.497C100.496 11.4565 100.467 11.4041 100.455 11.3467C100.442 11.2892 100.448 11.2294 100.47 11.175L100.479 11.116Z" fill="#52B214"/><path id="Path 8" d="M101.948 6.504C101.974 6.11083 102.091 5.72912 102.29 5.38922C102.49 5.04932 102.766 4.76059 103.096 4.546C103.763 4.12253 104.527 3.87673 105.315 3.832C105.44 4.43432 105.373 5.06049 105.124 5.623C105.001 6.01541 104.791 6.37523 104.511 6.676C104.211 6.9297 103.849 7.09863 103.463 7.16528C103.076 7.23192 102.678 7.19384 102.311 7.055C102.197 7.02504 102.093 6.96809 102.006 6.889C101.963 6.8485 101.934 6.7961 101.922 6.73866C101.909 6.68121 101.915 6.62139 101.937 6.567L101.948 6.504Z" fill="#52B214"/><path id="Path 9" d="M97.781 32.187C97.7664 31.7931 97.8437 31.4013 98.0069 31.0425C98.17 30.6837 98.4146 30.3679 98.721 30.12C99.3406 29.6298 100.075 29.3062 100.855 29.18C101.04 29.7661 101.038 30.3952 100.849 30.98C100.767 31.3827 100.597 31.762 100.349 32.09C100.077 32.3719 99.7351 32.5761 99.3581 32.6815C98.981 32.787 98.5826 32.7899 98.204 32.69C98.0877 32.6723 97.9775 32.6263 97.883 32.556C97.8367 32.5202 97.8024 32.4713 97.7845 32.4156C97.7667 32.3598 97.7662 32.3 97.783 32.244L97.781 32.187Z" fill="#52B214"/><path id="Path 10" d="M93.214 23.302C93.0966 22.9261 93.0683 22.528 93.1313 22.1392C93.1943 21.7504 93.3469 21.3817 93.577 21.062C94.0459 20.4263 94.6692 19.9207 95.388 19.593C95.7218 20.1096 95.8861 20.7176 95.858 21.332C95.8842 21.7412 95.8189 22.1512 95.667 22.532C95.4793 22.8759 95.2033 23.1634 94.8673 23.3649C94.5314 23.5663 94.1477 23.6744 93.756 23.678C93.6391 23.6921 93.5206 23.6769 93.411 23.634C93.3567 23.6118 93.3104 23.5736 93.2783 23.5245C93.2461 23.4754 93.2297 23.4177 93.231 23.359L93.214 23.302Z" fill="#52B214"/><path id="Path 11" d="M95.866 8.22002C95.7481 7.84397 95.7196 7.44562 95.7826 7.05661C95.8456 6.6676 95.9985 6.29864 96.229 5.97902C96.6978 5.34301 97.3216 4.83762 98.041 4.51102C98.3752 5.02745 98.5392 5.63559 98.51 6.25002C98.5371 6.65918 98.4721 7.06922 98.32 7.45001C98.1325 7.79406 97.8565 8.08178 97.5205 8.28342C97.1845 8.48507 96.8008 8.59333 96.409 8.59702C96.2921 8.6106 96.1737 8.5955 96.064 8.55302C96.0099 8.53054 95.9637 8.49229 95.9316 8.44324C95.8995 8.3942 95.8829 8.33662 95.884 8.27802L95.866 8.22002Z" fill="#52B214"/><path id="Path 12" d="M99.6451 4.972C99.5272 4.59595 99.4987 4.19761 99.5617 3.80859C99.6247 3.41958 99.7775 3.05062 100.008 2.731C100.476 2.09503 101.1 1.58963 101.819 1.263C102.154 1.77932 102.318 2.38746 102.289 3.002C102.315 3.41121 102.25 3.82109 102.098 4.202C101.91 4.54585 101.634 4.83337 101.298 5.03484C100.962 5.2363 100.579 5.34441 100.187 5.348C100.071 5.36158 99.9524 5.34648 99.8431 5.304C99.7888 5.28157 99.7425 5.24335 99.7103 5.19432C99.678 5.14529 99.6612 5.08769 99.6621 5.029L99.6451 4.972Z" fill="#52B214"/><path id="Path 13" d="M86.2541 22.816C86.1843 22.5351 86.181 22.2417 86.2446 21.9592C86.3081 21.6767 86.4367 21.413 86.6201 21.189C86.9914 20.7422 87.471 20.3979 88.0131 20.189C88.2361 20.5837 88.3295 21.0384 88.2801 21.489C88.2819 21.7908 88.216 22.0891 88.0871 22.362C87.9341 22.6059 87.7188 22.8046 87.4634 22.9375C87.2079 23.0704 86.9217 23.1327 86.6341 23.118C86.5482 23.1222 86.4624 23.1057 86.3841 23.07C86.3453 23.0512 86.313 23.0211 86.2916 22.9836C86.2702 22.9461 86.2606 22.903 86.2641 22.86L86.2541 22.816Z" fill="#52B214"/><path id="Path 14" d="M96.1351 29.489C95.9808 29.2442 95.8856 28.9668 95.8572 28.6789C95.8287 28.3909 95.8677 28.1003 95.9711 27.83C96.1838 27.2901 96.5312 26.8137 96.9801 26.446C97.3145 26.7496 97.5453 27.1504 97.6401 27.592C97.7367 27.8785 97.7678 28.1829 97.7311 28.483C97.6625 28.7625 97.5206 29.0186 97.32 29.225C97.1195 29.4313 96.8675 29.5805 96.5901 29.657C96.5099 29.688 96.4235 29.6993 96.3381 29.69C96.2954 29.6843 96.2555 29.6659 96.2234 29.6372C96.1913 29.6085 96.1685 29.5708 96.1581 29.529L96.1351 29.489Z" fill="#52B214"/><path id="Path 15" d="M105.907 29.867C105.934 29.5786 106.028 29.3006 106.181 29.0548C106.335 28.809 106.543 28.6023 106.79 28.451C107.288 28.1536 107.854 27.9884 108.434 27.971C108.514 28.4161 108.452 28.8749 108.257 29.283C108.159 29.5689 107.998 29.8293 107.786 30.045C107.561 30.2244 107.292 30.3406 107.008 30.3816C106.723 30.4226 106.432 30.3868 106.166 30.278C106.083 30.254 106.007 30.2101 105.945 30.15C105.915 30.1193 105.894 30.0802 105.886 30.0378C105.879 29.9953 105.884 29.9515 105.901 29.912L105.907 29.867Z" fill="#52B214"/><path id="Path 16" d="M105.067 8.654C105.094 8.36577 105.188 8.08784 105.341 7.84223C105.495 7.59662 105.703 7.39009 105.95 7.23901C106.448 6.94159 107.014 6.77637 107.594 6.759C107.673 7.20367 107.612 7.66197 107.418 8.07C107.319 8.35557 107.158 8.61577 106.947 8.832C106.722 9.01144 106.453 9.12762 106.168 9.16857C105.883 9.20953 105.592 9.17378 105.326 9.065C105.243 9.04058 105.167 8.9967 105.105 8.937C105.075 8.9063 105.054 8.86714 105.047 8.82466C105.039 8.78219 105.044 8.73838 105.062 8.69901L105.067 8.654Z" fill="#52B214"/><path id="Path 17" d="M115.738 17.157C115.765 16.8688 115.859 16.5908 116.012 16.3452C116.165 16.0996 116.374 15.8931 116.621 15.742C117.119 15.4444 117.685 15.2791 118.265 15.262C118.344 15.7068 118.282 16.1651 118.088 16.573C117.99 16.8589 117.829 17.1193 117.617 17.335C117.392 17.5145 117.123 17.6307 116.839 17.6716C116.554 17.7126 116.263 17.6768 115.997 17.568C115.914 17.5442 115.837 17.5003 115.775 17.44C115.745 17.4093 115.724 17.3702 115.717 17.3277C115.709 17.2852 115.714 17.2414 115.732 17.202L115.738 17.157Z" fill="#52B214"/><path id="Path 18" d="M112.904 13.779C112.931 13.4907 113.025 13.2126 113.179 12.967C113.332 12.7214 113.541 12.5149 113.788 12.364C114.286 12.0662 114.851 11.9006 115.431 11.883C115.51 12.3281 115.449 12.7868 115.254 13.195C115.156 13.4804 114.995 13.7403 114.784 13.956C114.559 14.1354 114.29 14.2517 114.005 14.2928C113.72 14.3339 113.43 14.2984 113.163 14.19C113.08 14.1655 113.005 14.1217 112.942 14.062C112.912 14.0313 112.891 13.9921 112.884 13.9497C112.876 13.9072 112.881 13.8634 112.899 13.824L112.904 13.779Z" fill="#52B214"/><path id="Path 19" d="M112.274 8.986C112.301 8.69777 112.395 8.41984 112.548 8.17423C112.702 7.92862 112.91 7.72208 113.157 7.571C113.655 7.27359 114.221 7.10837 114.801 7.091C114.88 7.53577 114.818 7.99419 114.624 8.402C114.526 8.68786 114.366 8.94821 114.154 9.164C113.929 9.34325 113.66 9.45931 113.375 9.50026C113.09 9.54121 112.8 9.50557 112.533 9.397C112.45 9.37259 112.374 9.3287 112.312 9.269C112.282 9.2383 112.261 9.19914 112.254 9.15666C112.246 9.11419 112.251 9.07038 112.269 9.031L112.274 8.986Z" fill="#52B214"/><path id="Path 20" d="M119.02 19.13C119.301 19.1976 119.563 19.3299 119.785 19.5163C120.006 19.7027 120.181 19.9382 120.296 20.204C120.521 20.7405 120.605 21.3259 120.539 21.904C120.087 21.92 119.642 21.7941 119.265 21.544C118.996 21.4062 118.761 21.2101 118.578 20.97C118.432 20.7218 118.356 20.4393 118.356 20.1515C118.356 19.8638 118.432 19.5812 118.578 19.333C118.614 19.2545 118.668 19.1858 118.736 19.133C118.77 19.1071 118.812 19.0923 118.855 19.0903C118.898 19.0883 118.94 19.0994 118.977 19.122L119.02 19.13Z" fill="#52B214"/><path id="Path 21" d="M116.384 13.665C116.367 13.243 116.448 12.8227 116.622 12.4376C116.795 12.0525 117.056 11.7133 117.384 11.447C118.046 10.919 118.831 10.5689 119.666 10.43C119.868 11.0582 119.868 11.7338 119.666 12.362C119.58 12.7942 119.398 13.2015 119.134 13.554C118.844 13.8581 118.478 14.0791 118.073 14.1942C117.669 14.3094 117.241 14.3145 116.834 14.209C116.71 14.1901 116.592 14.1414 116.49 14.067C116.44 14.029 116.402 13.9766 116.382 13.9168C116.363 13.8569 116.361 13.7925 116.379 13.732L116.384 13.665Z" fill="#52B214"/><path id="Path 22" d="M89.328 20.489C89.5862 20.3584 89.8714 20.2898 90.1608 20.2888C90.4501 20.2878 90.7358 20.3543 90.995 20.483C91.5122 20.7461 91.9536 21.1371 92.277 21.619C91.9439 21.9225 91.5244 22.1144 91.077 22.168C90.7828 22.237 90.477 22.2391 90.182 22.174C89.9102 22.0793 89.6686 21.9138 89.4821 21.6946C89.2956 21.4754 89.1709 21.2104 89.121 20.927C89.0973 20.844 89.0942 20.7565 89.112 20.672C89.1214 20.6297 89.1435 20.5913 89.1753 20.5618C89.2071 20.5324 89.2471 20.5133 89.29 20.507L89.328 20.489Z" fill="#52B214"/><path id="Path 23" d="M109.827 22.519C109.877 22.234 109.993 21.9647 110.165 21.7323C110.338 21.4998 110.562 21.3108 110.82 21.18C111.34 20.9226 111.917 20.8027 112.497 20.832C112.541 21.2821 112.442 21.7346 112.216 22.126C112.095 22.4025 111.914 22.6485 111.686 22.846C111.447 23.0067 111.17 23.1007 110.883 23.1182C110.595 23.1358 110.309 23.0764 110.052 22.946C109.971 22.9157 109.899 22.8659 109.842 22.801C109.814 22.7682 109.797 22.7278 109.792 22.685C109.788 22.6422 109.796 22.5991 109.816 22.561L109.827 22.519Z" fill="#52B214"/><path id="Path 24" d="M105.993 5.88902C105.943 5.52076 105.979 5.1458 106.099 4.79405C106.219 4.4423 106.42 4.12348 106.685 3.86302C107.222 3.34621 107.883 2.97605 108.604 2.78802C108.834 3.32175 108.891 3.91421 108.767 4.48203C108.727 4.86793 108.601 5.24002 108.399 5.57102C108.169 5.86051 107.866 6.08346 107.522 6.21687C107.177 6.35029 106.803 6.38935 106.438 6.33002C106.327 6.32262 106.219 6.2883 106.124 6.23002C106.077 6.2007 106.039 6.15759 106.017 6.10646C105.995 6.05534 105.989 5.99865 106 5.94402L105.993 5.88902Z" fill="#52B214"/><path id="Path 25" d="M108.878 25.352C108.929 25.0662 109.046 24.7963 109.219 24.5637C109.393 24.331 109.618 24.1421 109.878 24.012C110.398 23.7552 110.976 23.6357 111.555 23.665C111.599 24.1148 111.501 24.567 111.274 24.958C111.153 25.2349 110.971 25.4812 110.743 25.679C110.504 25.8395 110.227 25.9333 109.94 25.9509C109.652 25.9685 109.366 25.9092 109.109 25.779C109.028 25.7485 108.956 25.6992 108.899 25.635C108.871 25.602 108.854 25.5614 108.849 25.5184C108.845 25.4754 108.853 25.432 108.874 25.394L108.878 25.352Z" fill="#52B214"/><path id="Path 26" d="M108.878 6.56C108.928 6.27503 109.044 6.00566 109.216 5.77324C109.389 5.54082 109.613 5.35175 109.871 5.221C110.391 4.96355 110.968 4.84373 111.548 4.873C111.592 5.3228 111.494 5.77506 111.267 6.166C111.146 6.44331 110.965 6.69002 110.736 6.888C110.497 7.04827 110.22 7.14201 109.933 7.15959C109.645 7.17716 109.359 7.11794 109.102 6.988C109.021 6.95682 108.949 6.90676 108.892 6.84201C108.864 6.80916 108.847 6.76868 108.842 6.72586C108.838 6.68305 108.847 6.63988 108.867 6.602L108.878 6.56Z" fill="#52B214"/><path id="Path 27" d="M109.619 15.36C109.669 15.0749 109.785 14.8053 109.958 14.5727C110.13 14.3402 110.355 14.1509 110.613 14.02C111.133 13.7628 111.71 13.6433 112.29 13.673C112.334 14.1228 112.235 14.575 112.009 14.966C111.888 15.2428 111.707 15.4892 111.479 15.687C111.24 15.8473 110.963 15.941 110.675 15.9586C110.388 15.9762 110.102 15.917 109.845 15.787C109.764 15.7558 109.692 15.7058 109.634 15.641C109.606 15.608 109.589 15.5675 109.585 15.5247C109.581 15.4819 109.589 15.4388 109.61 15.401L109.619 15.36Z" fill="#52B214"/><path id="Path 28" d="M93.6901 6.18102C93.5643 5.92023 93.5009 5.63371 93.5051 5.34418C93.5092 5.05466 93.5808 4.77008 93.7141 4.51302C93.9869 4.00092 94.3862 3.56716 94.8741 3.25302C95.1723 3.59269 95.3566 4.01723 95.4011 4.46702C95.4641 4.76245 95.4604 5.06823 95.3901 5.36202C95.2904 5.63186 95.1205 5.87021 94.898 6.0525C94.6754 6.23479 94.4083 6.3544 94.1241 6.39902C94.0403 6.4193 93.9529 6.4193 93.8691 6.39902C93.8272 6.3884 93.7895 6.36548 93.7608 6.33321C93.7321 6.30095 93.7138 6.26082 93.7081 6.21802L93.6901 6.18102Z" fill="#52B214"/><path id="Path 29" d="M96.6271 3.98101C96.5014 3.72032 96.4383 3.43393 96.4426 3.14456C96.4469 2.85519 96.5187 2.57082 96.6521 2.31401C96.9245 1.80166 97.3235 1.36756 97.8111 1.05301C98.1097 1.39242 98.294 1.8171 98.3381 2.26701C98.4018 2.56229 98.3987 2.86807 98.3291 3.16201C98.229 3.43189 98.0589 3.67027 97.8362 3.85268C97.6136 4.0351 97.3464 4.15498 97.0621 4.20001C96.9784 4.22077 96.8908 4.22077 96.8071 4.20001C96.7652 4.18983 96.7274 4.16717 96.6986 4.13503C96.6699 4.10289 96.6515 4.06279 96.6461 4.02001L96.6271 3.98101Z" fill="#52B214"/><path id="Path 30" d="M104.62 16.379C104.553 16.0974 104.553 15.8041 104.619 15.5224C104.685 15.2406 104.816 14.9782 105.002 14.756C105.377 14.3148 105.859 13.9767 106.402 13.774C106.62 14.1702 106.709 14.6248 106.656 15.074C106.656 15.376 106.587 15.6741 106.456 15.946C106.301 16.1883 106.084 16.3848 105.827 16.5153C105.571 16.6457 105.284 16.7053 104.997 16.688C104.911 16.6915 104.825 16.674 104.747 16.637C104.708 16.6181 104.676 16.5877 104.655 16.55C104.634 16.5123 104.625 16.469 104.629 16.426L104.62 16.379Z" fill="#52B214"/><path id="Path 31" d="M105.464 12.296C105.397 12.0142 105.397 11.7208 105.463 11.4389C105.529 11.157 105.66 10.8944 105.846 10.672C106.221 10.2307 106.703 9.89272 107.246 9.69C107.464 10.0864 107.552 10.5408 107.5 10.99C107.499 11.2919 107.431 11.5899 107.3 11.862C107.145 12.1041 106.928 12.3004 106.671 12.4307C106.415 12.5609 106.128 12.6204 105.841 12.603C105.755 12.6071 105.669 12.5899 105.591 12.553C105.552 12.5334 105.521 12.5028 105.5 12.465C105.478 12.4273 105.469 12.3841 105.473 12.341L105.464 12.296Z" fill="#52B214"/><path id="Path 32" d="M105.291 24.354C105.119 24.1212 105.004 23.8514 104.954 23.5662C104.905 23.281 104.923 22.9882 105.006 22.711C105.179 22.1568 105.491 21.6562 105.912 21.257C106.268 21.537 106.528 21.9218 106.654 22.357C106.771 22.6356 106.825 22.937 106.81 23.239C106.762 23.5228 106.639 23.7887 106.454 24.0092C106.269 24.2296 106.028 24.3966 105.757 24.493C105.679 24.5298 105.593 24.5476 105.507 24.545C105.464 24.5423 105.423 24.5268 105.389 24.5004C105.355 24.474 105.329 24.438 105.316 24.397L105.291 24.354Z" fill="#52B214"/><path id="Path 33" d="M107.602 14.529C107.537 14.2469 107.539 13.9536 107.607 13.6722C107.675 13.3908 107.807 13.1292 107.994 12.908C108.373 12.4688 108.858 12.1338 109.403 11.935C109.619 12.332 109.705 12.7866 109.649 13.235C109.646 13.5376 109.575 13.8355 109.441 14.107C109.284 14.3482 109.066 14.5432 108.809 14.6719C108.551 14.8006 108.264 14.8583 107.977 14.839C107.891 14.8419 107.805 14.8241 107.727 14.787C107.689 14.7673 107.657 14.7365 107.637 14.6987C107.616 14.661 107.607 14.6179 107.611 14.575L107.602 14.529Z" fill="#52B214"/><path id="Path 34" d="M86.2139 2.47701C86.1504 2.20916 86.1504 1.93018 86.2137 1.6623C86.2771 1.39442 86.4021 1.14504 86.5789 0.934013C86.9368 0.514016 87.3965 0.192785 87.9139 0.00100708C88.1212 0.37777 88.2051 0.810047 88.1539 1.23701C88.1529 1.52424 88.0873 1.80757 87.9619 2.06601C87.8135 2.29561 87.6066 2.4815 87.3624 2.60454C87.1183 2.72758 86.8458 2.78332 86.5729 2.76601C86.4908 2.76981 86.4091 2.75332 86.3349 2.71801C86.298 2.70017 86.2675 2.67142 86.2474 2.63565C86.2274 2.59988 86.2188 2.55881 86.2229 2.51801L86.2139 2.47701Z" fill="#52B214"/><path id="Path 35" d="M82.545 2.813C82.3256 2.69163 82.1376 2.5208 81.9958 2.31406C81.8539 2.10732 81.7623 1.87036 81.728 1.622C81.6639 1.12349 81.7293 0.616854 81.918 0.151001C82.2987 0.241814 82.6414 0.44953 82.898 0.745003C83.0914 0.921746 83.2425 1.13982 83.34 1.383C83.4044 1.62388 83.4034 1.87759 83.3369 2.11791C83.2705 2.35824 83.141 2.57645 82.962 2.75C82.9138 2.80753 82.8524 2.85249 82.783 2.881C82.7488 2.89395 82.7115 2.89639 82.6758 2.88802C82.6402 2.87964 82.6079 2.86083 82.583 2.834L82.545 2.813Z" fill="#52B214"/><path id="Path 36" d="M92.45 11.106C92.2781 10.8731 92.1628 10.6034 92.1133 10.3182C92.0639 10.033 92.0816 9.74017 92.165 9.46301C92.338 8.90895 92.6499 8.40839 93.071 8.009C93.4273 8.28911 93.6867 8.67381 93.813 9.10901C93.9304 9.38728 93.9837 9.68836 93.969 9.99001C93.9208 10.2738 93.7979 10.5395 93.6128 10.7599C93.4277 10.9804 93.1872 11.1474 92.916 11.244C92.8383 11.2816 92.7524 11.2995 92.666 11.296C92.6229 11.2937 92.5815 11.2783 92.5474 11.2519C92.5133 11.2254 92.488 11.1892 92.475 11.148L92.45 11.106Z" fill="#52B214"/><path id="Path 37" d="M103.469 3.35302C103.297 3.12045 103.181 2.85087 103.132 2.56579C103.082 2.2807 103.1 1.988 103.184 1.71102C103.355 1.15734 103.664 0.656702 104.084 0.257019C104.441 0.536702 104.701 0.921518 104.827 1.35703C104.944 1.63572 104.997 1.93713 104.982 2.23902C104.933 2.52079 104.811 2.78469 104.628 3.0039C104.444 3.22311 104.206 3.3898 103.937 3.48702C103.859 3.52432 103.773 3.54216 103.687 3.53902C103.644 3.5362 103.603 3.5206 103.569 3.49422C103.535 3.46785 103.509 3.43192 103.496 3.39102L103.469 3.35302Z" fill="#52B214"/><path id="Path 38" d="M101.739 27.784C101.533 27.4579 101.407 27.0884 101.369 26.7048C101.331 26.3211 101.383 25.934 101.521 25.574C101.804 24.8553 102.267 24.2212 102.865 23.732C103.31 24.137 103.618 24.6708 103.745 25.259C103.873 25.6404 103.915 26.0456 103.866 26.445C103.775 26.817 103.586 27.158 103.319 27.4327C103.052 27.7074 102.716 27.906 102.347 28.008C102.24 28.05 102.124 28.0648 102.01 28.051C101.953 28.0433 101.9 28.0188 101.858 27.9807C101.815 27.9425 101.785 27.8925 101.771 27.837L101.739 27.784Z" fill="#52B214"/><path id="Path 39" d="M110.141 29.961C109.935 29.6349 109.809 29.2654 109.771 28.8818C109.733 28.4981 109.785 28.111 109.923 27.751C110.207 27.0325 110.669 26.3984 111.267 25.909C111.712 26.3137 112.02 26.8477 112.147 27.436C112.275 27.8174 112.317 28.2226 112.268 28.622C112.176 28.9939 111.987 29.3348 111.72 29.6095C111.454 29.8842 111.118 30.0828 110.749 30.185C110.642 30.2264 110.527 30.2415 110.413 30.229C110.356 30.2214 110.303 30.1968 110.26 30.1584C110.218 30.1201 110.188 30.0697 110.174 30.014L110.141 29.961Z" fill="#52B214"/><path id="Path 40" d="M112.977 26.708C112.771 26.3819 112.645 26.0125 112.607 25.6289C112.569 25.2453 112.62 24.8581 112.758 24.498C113.042 23.7796 113.505 23.1456 114.102 22.656C114.548 23.0611 114.855 23.5954 114.982 24.184C115.11 24.5651 115.151 24.9699 115.103 25.369C115.012 25.7411 114.823 26.0821 114.556 26.3568C114.289 26.6316 113.953 26.8301 113.584 26.932C113.477 26.974 113.362 26.9891 113.248 26.976C113.191 26.9684 113.138 26.944 113.096 26.9058C113.053 26.8677 113.023 26.8175 113.009 26.762L112.977 26.708Z" fill="#52B214"/><path id="Path 41" d="M111.952 17.037C111.988 16.6532 112.113 16.283 112.317 15.9559C112.521 15.6287 112.798 15.3535 113.127 15.152C113.789 14.7559 114.542 14.5353 115.313 14.511C115.419 15.1036 115.337 15.7145 115.078 16.258C114.947 16.6383 114.733 16.9847 114.451 17.272C114.152 17.5111 113.795 17.6662 113.416 17.7212C113.037 17.7762 112.651 17.7292 112.296 17.585C112.186 17.5527 112.086 17.4944 112.003 17.415C111.963 17.3744 111.935 17.3225 111.925 17.2661C111.914 17.2098 111.921 17.1515 111.944 17.099L111.952 17.037Z" fill="#52B214"/><path id="Path 42" d="M115.912 23.875C115.707 23.5489 115.58 23.1794 115.542 22.7958C115.504 22.4122 115.556 22.025 115.694 21.665C115.978 20.9452 116.442 20.3103 117.042 19.821C117.487 20.2258 117.795 20.7597 117.922 21.348C118.05 21.7294 118.092 22.1346 118.043 22.534C117.951 22.9059 117.763 23.2467 117.496 23.5212C117.229 23.7958 116.893 23.9942 116.524 24.096C116.417 24.1383 116.302 24.1534 116.188 24.14C116.131 24.1325 116.078 24.1081 116.035 24.0699C115.992 24.0318 115.962 23.9816 115.948 23.926L115.912 23.875Z" fill="#52B214"/><path id="Path 43" d="M97.9089 17.782C97.7032 17.456 97.5764 17.0864 97.5386 16.7028C97.5007 16.3191 97.5529 15.932 97.6909 15.572C97.9743 14.8533 98.437 14.2192 99.0349 13.73C99.4803 14.1348 99.788 14.6687 99.9149 15.257C100.043 15.6384 100.084 16.0436 100.036 16.443C99.9445 16.815 99.7556 17.156 99.4886 17.4307C99.2216 17.7054 98.8862 17.904 98.5169 18.006C98.4096 18.0471 98.2941 18.0619 98.1799 18.049C98.1232 18.0415 98.0701 18.017 98.0274 17.9788C97.9848 17.9407 97.9547 17.8906 97.9409 17.835L97.9089 17.782Z" fill="#52B214"/><path id="Path 44" d="M82.7361 14.169C82.5303 13.8432 82.4034 13.4739 82.3654 13.0904C82.3273 12.7069 82.3793 12.3199 82.517 11.96C82.8007 11.2412 83.2633 10.6068 83.8611 10.117C84.3066 10.5217 84.6143 11.0556 84.741 11.644C84.8692 12.0254 84.9106 12.4306 84.862 12.83C84.7707 13.2021 84.5818 13.5431 84.3148 13.8178C84.0478 14.0925 83.7124 14.2911 83.343 14.393C83.2363 14.435 83.121 14.4501 83.007 14.437C82.9503 14.4294 82.8972 14.405 82.8546 14.3668C82.812 14.3287 82.7818 14.2785 82.768 14.223L82.7361 14.169Z" fill="#52B214"/><path id="Path 45" d="M85.3189 22.463C85.1027 22.4288 84.8976 22.3445 84.7199 22.2166C84.5422 22.0888 84.397 21.9211 84.2959 21.727C84.0961 21.3369 83.9997 20.902 84.0159 20.464C84.3555 20.4265 84.6982 20.4964 84.9959 20.664C85.2065 20.7519 85.3945 20.8863 85.5459 21.057C85.6708 21.235 85.7459 21.4432 85.7635 21.6599C85.781 21.8767 85.7405 22.0942 85.6459 22.29C85.6237 22.3517 85.5866 22.407 85.5379 22.451C85.5132 22.472 85.4828 22.4852 85.4506 22.489C85.4184 22.4927 85.3858 22.4868 85.3569 22.472L85.3189 22.463Z" fill="#52B214"/><path id="Path 46" d="M94.8731 31.524C94.6571 31.4892 94.4522 31.4046 94.2747 31.2769C94.0971 31.1491 93.9517 30.9817 93.8501 30.788C93.6503 30.3979 93.5539 29.963 93.5701 29.525C93.91 29.4877 94.253 29.5577 94.5511 29.725C94.7616 29.8135 94.9496 29.9481 95.1011 30.119C95.226 30.297 95.3011 30.5052 95.3187 30.7219C95.3362 30.9387 95.2957 31.1562 95.2011 31.352C95.1793 31.4134 95.1426 31.4684 95.0941 31.512C95.0696 31.5334 95.0392 31.5468 95.0069 31.5506C94.9746 31.5543 94.9419 31.5482 94.9131 31.533L94.8731 31.524Z" fill="#52B214"/><path id="Path 47" d="M98.695 28.033C98.5033 27.7974 98.3853 27.5105 98.3556 27.2082C98.3259 26.9058 98.3858 26.6015 98.528 26.333C98.8521 25.79 99.3261 25.3522 99.893 25.072C100.298 25.3858 100.591 25.8227 100.727 26.317C100.844 26.6053 100.876 26.921 100.82 27.227C100.686 27.5244 100.472 27.7785 100.201 27.9606C99.9309 28.1428 99.6149 28.2458 99.289 28.258C99.1787 28.2793 99.0653 28.2793 98.955 28.258C98.845 28.231 98.739 28.158 98.724 28.071L98.695 28.033Z" fill="#52B214"/><path id="Path 48" d="M120.034 18.027C120.252 17.8037 120.52 17.6341 120.815 17.5317C121.11 17.4293 121.424 17.3969 121.734 17.437C122.352 17.5224 122.937 17.7652 123.434 18.142C123.198 18.5674 122.836 18.9091 122.398 19.12C122.123 19.2926 121.812 19.4016 121.489 19.439C121.181 19.438 120.878 19.3545 120.613 19.1971C120.347 19.0398 120.129 18.8142 119.98 18.544C119.927 18.4682 119.893 18.3808 119.88 18.289C119.875 18.2429 119.885 18.1965 119.907 18.1558C119.929 18.1152 119.963 18.0821 120.004 18.061L120.034 18.027Z" fill="#52B214"/><path id="Path 49" d="M107.136 21.283C107.004 21.1088 106.915 20.9061 106.875 20.6911C106.835 20.4761 106.847 20.2548 106.908 20.045C107.034 19.6251 107.266 19.2445 107.581 18.94C107.852 19.1479 108.051 19.4353 108.15 19.762C108.241 19.9715 108.284 20.1988 108.275 20.427C108.241 20.6417 108.15 20.8434 108.012 21.0115C107.874 21.1795 107.694 21.3077 107.49 21.383C107.431 21.4119 107.366 21.4263 107.301 21.425C107.268 21.4234 107.237 21.412 107.211 21.3924C107.185 21.3728 107.165 21.3458 107.155 21.315L107.136 21.283Z" fill="#52B214"/><path id="Path 50" d="M93.6471 16.031C93.6781 15.8144 93.7593 15.6081 93.8841 15.4284C94.0089 15.2488 94.174 15.1007 94.3661 14.996C94.753 14.7904 95.186 14.6871 95.6241 14.696C95.6674 15.0345 95.6041 15.3781 95.4431 15.679C95.3582 15.891 95.227 16.0813 95.0591 16.236C94.8828 16.3632 94.6757 16.4409 94.4593 16.4613C94.2429 16.4817 94.025 16.444 93.8281 16.352C93.7666 16.332 93.7107 16.2978 93.6651 16.252C93.6432 16.2278 93.6292 16.1975 93.6249 16.1652C93.6206 16.1329 93.6263 16.1 93.6411 16.071L93.6471 16.031Z" fill="#52B214"/><path id="Path 51" d="M89.6229 14.042C89.5575 13.8333 89.5415 13.6123 89.5762 13.3964C89.6109 13.1805 89.6954 12.9756 89.8229 12.798C90.0816 12.4458 90.4257 12.1653 90.8229 11.983C91.0089 12.2694 91.1002 12.6069 91.0839 12.948C91.0997 13.1757 91.0638 13.4041 90.9789 13.616C90.8748 13.8069 90.7218 13.9665 90.5354 14.0785C90.3491 14.1905 90.1363 14.2507 89.9189 14.253C89.8542 14.261 89.7886 14.2528 89.7279 14.229C89.6979 14.2164 89.6723 14.1951 89.6544 14.1678C89.6366 14.1406 89.6274 14.1086 89.6279 14.076L89.6229 14.042Z" fill="#52B214"/><path id="Path 52" d="M88.918 7.22903C88.7887 7.05264 88.7026 6.84841 88.6664 6.63273C88.6303 6.41705 88.6452 6.1959 88.71 5.98702C88.8417 5.56717 89.0793 5.18833 89.4 4.88702C89.6671 5.09958 89.8614 5.39002 89.956 5.71803C90.0434 5.92903 90.0824 6.15696 90.07 6.38503C90.0326 6.59916 89.9387 6.79943 89.7981 6.96519C89.6574 7.13095 89.4751 7.2562 89.27 7.32803C89.211 7.35591 89.1461 7.36896 89.081 7.36603C89.0485 7.36412 89.0173 7.35239 88.9916 7.33239C88.9659 7.31239 88.9468 7.28507 88.937 7.25403L88.918 7.22903Z" fill="#52B214"/><path id="Path 53" d="M85.2721 10.554C85.197 10.2334 85.1977 9.89964 85.2743 9.57934C85.3508 9.25904 85.5011 8.96103 85.7131 8.70902C86.1428 8.20806 86.6936 7.82556 87.3131 7.59802C87.5595 8.04906 87.6588 8.5658 87.5971 9.07603C87.5943 9.42003 87.5143 9.75902 87.3631 10.068C87.1853 10.3426 86.9374 10.5649 86.6451 10.7118C86.3528 10.8588 86.0266 10.9251 85.7001 10.904C85.6018 10.9084 85.5039 10.8884 85.4151 10.846C85.3714 10.8242 85.3353 10.7898 85.3116 10.7471C85.2879 10.7045 85.2776 10.6556 85.2821 10.607L85.2721 10.554Z" fill="#52B214"/><path id="Path 54" d="M94.4789 2.62003C94.35 2.44324 94.2642 2.23885 94.2281 2.02309C94.1919 1.80733 94.2066 1.58613 94.2709 1.37702C94.4037 0.959438 94.6413 0.582815 94.9609 0.28302C95.2286 0.495027 95.4231 0.785673 95.5169 1.11402C95.6042 1.32473 95.6435 1.55224 95.6319 1.78002C95.5943 1.99422 95.5004 2.19456 95.3598 2.36046C95.2192 2.52636 95.037 2.65184 94.8319 2.72402C94.7729 2.75191 94.708 2.76496 94.6429 2.76202C94.6103 2.75977 94.5792 2.74779 94.5535 2.72765C94.5279 2.7075 94.5088 2.68011 94.4989 2.64902L94.4789 2.62003Z" fill="#52B214"/><path id="Path 55" d="M92.6139 3.25301C92.4847 3.07641 92.3985 2.87207 92.3622 2.65627C92.3259 2.44046 92.3406 2.21917 92.4049 2.01002C92.5375 1.59232 92.7751 1.21564 93.0949 0.916016C93.3628 1.12788 93.5573 1.41858 93.6509 1.74702C93.7383 1.95772 93.7775 2.18523 93.7659 2.41302C93.7285 2.62725 93.6346 2.82764 93.494 2.99355C93.3534 3.15947 93.1711 3.28493 92.9659 3.35702C92.907 3.3848 92.842 3.3975 92.7769 3.39401C92.7445 3.39196 92.7133 3.38018 92.6877 3.36021C92.662 3.34023 92.6429 3.31298 92.6329 3.28201L92.6139 3.25301Z" fill="#52B214"/><path id="Path 56" d="M99.0151 2.41501C98.8858 2.23841 98.7996 2.03406 98.7633 1.81826C98.7271 1.60246 98.7417 1.38116 98.8061 1.172C98.9393 0.754591 99.1768 0.378053 99.4961 0.0780029C99.7638 0.29001 99.9582 0.580656 100.052 0.909004C100.14 1.11962 100.179 1.3472 100.167 1.575C100.129 1.7892 100.036 1.98954 99.895 2.15544C99.7544 2.32134 99.5722 2.44683 99.367 2.519C99.3081 2.54689 99.2432 2.55994 99.178 2.55701C99.1455 2.55462 99.1145 2.5426 99.0888 2.52247C99.0632 2.50234 99.0441 2.47502 99.0341 2.44401L99.0151 2.41501Z" fill="#52B214"/><path id="Path 57" d="M87.3059 34.436C87.3348 34.2192 87.4139 34.0122 87.5368 33.8313C87.6597 33.6505 87.823 33.5007 88.0139 33.394C88.3991 33.1843 88.8313 33.0762 89.2699 33.08C89.3162 33.4182 89.2561 33.7625 89.0979 34.065C89.0149 34.2779 88.8854 34.4695 88.7189 34.626C88.5438 34.7548 88.3375 34.8346 88.1213 34.8571C87.9051 34.8796 87.6868 34.844 87.4889 34.754C87.4272 34.7339 87.371 34.6997 87.3249 34.654C87.303 34.6299 87.2888 34.5997 87.2841 34.5675C87.2795 34.5352 87.2846 34.5023 87.2989 34.473L87.3059 34.436Z" fill="#52B214"/><path id="Path 58" d="M105.459 2.63801C105.488 2.42123 105.567 2.21416 105.69 2.03328C105.813 1.85239 105.976 1.70267 106.167 1.59601C106.552 1.38588 106.984 1.27778 107.423 1.28201C107.47 1.62025 107.41 1.96465 107.251 2.26701C107.168 2.48008 107.039 2.67182 106.872 2.82802C106.697 2.95682 106.491 3.03659 106.274 3.05909C106.058 3.08159 105.84 3.04601 105.642 2.95601C105.58 2.93635 105.524 2.90204 105.479 2.85602C105.457 2.83215 105.442 2.80205 105.437 2.76972C105.432 2.73739 105.438 2.70436 105.452 2.67502L105.459 2.63801Z" fill="#52B214"/><path id="Path 59" d="M101.384 19.416C101.413 19.1993 101.492 18.9922 101.615 18.8114C101.738 18.6305 101.901 18.4807 102.092 18.374C102.477 18.1638 102.909 18.056 103.348 18.061C103.394 18.3993 103.333 18.7436 103.175 19.046C103.092 19.2584 102.963 19.4497 102.797 19.606C102.622 19.7348 102.416 19.8146 102.199 19.8371C101.983 19.8596 101.765 19.824 101.567 19.734C101.505 19.7142 101.449 19.6799 101.403 19.634C101.381 19.6099 101.367 19.5798 101.362 19.5475C101.358 19.5153 101.363 19.4823 101.377 19.453L101.384 19.416Z" fill="#52B214"/><path id="Path 60" d="M113.74 11.168C113.769 10.951 113.848 10.7437 113.971 10.5626C114.094 10.3815 114.258 10.2317 114.449 10.125C114.834 9.91486 115.266 9.80677 115.704 9.811C115.751 10.1492 115.691 10.4936 115.532 10.796C115.449 11.0088 115.32 11.2005 115.154 11.357C114.979 11.4855 114.772 11.5651 114.556 11.5876C114.339 11.6101 114.121 11.5747 113.923 11.485C113.861 11.4651 113.806 11.4308 113.76 11.385C113.738 11.3609 113.724 11.3308 113.719 11.2985C113.715 11.2662 113.72 11.2333 113.734 11.204L113.74 11.168Z" fill="#52B214"/><path id="Path 61" d="M116.098 10.538C116.127 10.3212 116.207 10.1142 116.33 9.93332C116.453 9.75246 116.616 9.60273 116.807 9.49601C117.192 9.28575 117.624 9.17765 118.063 9.18201C118.109 9.52023 118.049 9.86435 117.891 10.167C117.808 10.3797 117.678 10.5713 117.512 10.728C117.337 10.857 117.131 10.9369 116.915 10.9594C116.698 10.9819 116.48 10.9462 116.282 10.856C116.22 10.836 116.164 10.8017 116.118 10.756C116.096 10.7319 116.082 10.7018 116.077 10.6695C116.073 10.6372 116.078 10.6043 116.092 10.575L116.098 10.538Z" fill="#52B214"/><path id="Path 62" d="M110.828 12.267C110.857 12.0503 110.936 11.8432 111.059 11.6623C111.182 11.4815 111.345 11.3317 111.536 11.225C111.921 11.0149 112.353 10.9068 112.792 10.911C112.838 11.2493 112.778 11.5938 112.619 11.896C112.537 12.109 112.408 12.3008 112.241 12.457C112.066 12.5858 111.86 12.6656 111.643 12.6881C111.427 12.7106 111.209 12.675 111.011 12.585C110.949 12.5651 110.894 12.5308 110.848 12.485C110.826 12.461 110.812 12.4309 110.807 12.3987C110.802 12.3664 110.807 12.3334 110.821 12.304L110.828 12.267Z" fill="#52B214"/><path id="Path 63" d="M116.502 18.981C116.561 18.7613 116.672 18.5592 116.827 18.3923C116.981 18.2253 117.174 18.0986 117.389 18.023C117.825 17.8776 118.292 17.8497 118.742 17.942C118.742 18.3009 118.63 18.6508 118.42 18.942C118.305 19.1492 118.142 19.3263 117.946 19.459C117.739 19.5596 117.51 19.6026 117.281 19.5832C117.052 19.5638 116.833 19.4829 116.646 19.349C116.584 19.3144 116.531 19.2662 116.491 19.208C116.471 19.1785 116.46 19.1437 116.46 19.108C116.46 19.0723 116.471 19.0375 116.491 19.008L116.502 18.981Z" fill="#52B214"/><path id="Path 64" d="M118.887 16.879C118.799 16.5098 118.801 16.1247 118.895 15.7568C118.989 15.389 119.171 15.0496 119.426 14.768C119.947 14.2068 120.608 13.7929 121.34 13.568C121.629 14.0951 121.743 14.6998 121.668 15.296C121.662 15.6913 121.565 16.0799 121.383 16.431C121.161 16.7424 120.859 16.9879 120.509 17.1416C120.159 17.2953 119.773 17.3514 119.394 17.304C119.276 17.3025 119.161 17.2738 119.056 17.22C119.004 17.1933 118.962 17.1518 118.934 17.1009C118.906 17.0499 118.894 16.9919 118.899 16.934L118.887 16.879Z" fill="#52B214"/><path id="Path 65" d="M84.0169 26.51C83.6714 26.3206 83.3749 26.053 83.1511 25.7287C82.9273 25.4044 82.7824 25.0323 82.7279 24.642C82.6257 23.8589 82.7255 23.0626 83.0179 22.329C83.6169 22.4704 84.1566 22.796 84.5609 23.26C84.8659 23.537 85.1051 23.8786 85.2609 24.26C85.3637 24.6382 85.3636 25.0371 85.2606 25.4152C85.1575 25.7934 84.9554 26.1372 84.6749 26.411C84.5995 26.5012 84.5035 26.5719 84.3949 26.617C84.3402 26.6386 84.2803 26.643 84.223 26.6298C84.1657 26.6166 84.1137 26.5863 84.0739 26.543L84.0169 26.51Z" fill="#52B214"/><path id="Path 66" d="M80.8189 4.96401C80.788 4.74884 80.7076 4.54376 80.584 4.36488C80.4605 4.186 80.2972 4.03818 80.1069 3.93301V5.39501C80.2893 5.39165 80.4695 5.354 80.6379 5.28401C80.6992 5.2642 80.7548 5.2299 80.7999 5.18401C80.822 5.15993 80.8361 5.12973 80.8406 5.0974C80.8451 5.06508 80.8396 5.03216 80.8249 5.00301L80.8189 4.96401Z" fill="#52B214"/><path id="Path 67" d="M80.1589 8.29602C80.2646 7.97771 80.246 7.63121 80.1069 7.32602V8.44002C80.1218 8.42577 80.1333 8.40846 80.1407 8.38928C80.1481 8.37011 80.1513 8.34954 80.1499 8.32902L80.1589 8.29602Z" fill="#52B214"/><path id="Path 68" d="M84.426 5.28101C84.7713 5.09128 85.0676 4.82365 85.2914 4.49938C85.5151 4.17512 85.6602 3.80315 85.715 3.41301C85.8165 2.62981 85.7163 1.83368 85.424 1.10001C84.8251 1.24161 84.2855 1.56717 83.881 2.03101C83.5761 2.30805 83.337 2.6497 83.181 3.03101C83.0784 3.40909 83.0787 3.80772 83.1817 4.18569C83.2847 4.56366 83.4868 4.90727 83.767 5.18101C83.8424 5.27122 83.9385 5.34189 84.047 5.38701C84.1017 5.40839 84.1615 5.41286 84.2188 5.39985C84.276 5.38683 84.328 5.35693 84.368 5.31401L84.426 5.28101Z" fill="#52B214"/><path id="Path 69" d="M90.302 4.23401C90.6472 4.04428 90.9435 3.77665 91.1673 3.45238C91.391 3.12812 91.5361 2.75614 91.591 2.366C91.6932 1.58289 91.5934 0.786635 91.301 0.053009C90.7022 0.194528 90.1627 0.519689 89.758 0.983002C89.4529 1.25991 89.2137 1.6016 89.058 1.983C88.9552 2.36123 88.9553 2.76006 89.0583 3.13823C89.1613 3.5164 89.3635 3.86017 89.644 4.134C89.7188 4.22441 89.8145 4.29513 89.923 4.34C89.9777 4.36155 90.0376 4.36601 90.0949 4.3528C90.1522 4.33959 90.2042 4.30933 90.244 4.26601L90.302 4.23401Z" fill="#52B214"/><g id="Group 192"><path id="Path 3" d="M122.429 15.537C122.726 15.2769 123.079 15.0897 123.461 14.9904C123.843 14.8911 124.243 14.8824 124.629 14.965C125.4 15.1366 126.114 15.503 126.703 16.029C126.366 16.5427 125.876 16.9382 125.303 17.16C124.938 17.3501 124.536 17.4563 124.125 17.471C123.734 17.438 123.36 17.3014 123.04 17.0751C122.72 16.8488 122.466 16.5412 122.305 16.184C122.245 16.0826 122.21 15.9679 122.205 15.85C122.204 15.7916 122.22 15.7342 122.252 15.6851C122.283 15.6361 122.329 15.5977 122.383 15.575L122.429 15.537Z" fill="#52B214"/><path id="Path 70" d="M49.867 5.66801L48.119 15.511L67.601 6.07302L61.882 1.08302L49.867 5.66801ZM63.492 15.859H78.824L68.557 6.90602L63.492 15.859ZM49.525 15.859H62.425L67.296 7.24902L49.525 15.859ZM62.395 16.788H48.64L72.789 40.436L62.395 16.788ZM79.481 16.788H63.408L74.038 40.97L79.481 16.788ZM78.039 1.01602H63.21L68.51 5.63402L78.039 1.01602ZM48.795 6.39302L36.03 15.859H47.115L48.795 6.39302ZM56.047 1.01602L52.435 3.69402L59.456 1.01602H56.047ZM66.257 43.216L78.804 54.125L73.79 42.716L50.463 19.87L66.257 43.216ZM35.866 16.788L63.537 40.846L47.258 16.788H35.866ZM80.066 5.71902V1.06502L70.458 5.71902H80.066ZM80.09 9.87002L80.066 6.64802H69.67L80.345 15.957C80.4271 16.0208 80.4855 16.1102 80.511 16.211V16.425L74.662 42.398L80.483 55.64L80.603 55.861L81.182 55.424C81.2485 54.6515 81.3823 53.8862 81.582 53.137C81.742 52.895 81.912 52.658 82.082 52.423C82.7175 51.6244 83.2043 50.7179 83.519 49.747C83.5747 49.5376 83.6128 49.3238 83.633 49.108L83.781 49.084C84.2772 50.2795 84.5516 51.5553 84.591 52.849L85.665 52.037C85.652 51.853 85.637 51.672 85.618 51.493C85.5777 51.1118 85.5143 50.7335 85.428 50.36C85.8 50.697 86.178 51.029 86.528 51.384L87.396 50.728C87.1377 50.4384 86.864 50.163 86.576 49.903C85.8619 49.324 85.2259 48.6547 84.684 47.912C85.318 48.058 85.967 48.16 86.616 48.262L87.194 48.411C87.9904 48.5951 88.7751 48.8265 89.544 49.104L90.644 48.272C89.9698 47.8997 89.2438 47.6301 88.49 47.472C88.296 47.429 88.101 47.393 87.904 47.356C88.118 47.327 88.33 47.304 88.54 47.288C89.6559 47.2084 90.7765 47.2228 91.89 47.331L93.19 46.349C92.1673 46.2107 91.1369 46.1358 90.105 46.125C88.8155 46.1308 87.5293 46.2533 86.262 46.491C85.887 46.558 85.505 46.625 85.123 46.675C84.8503 46.5764 84.5836 46.466 84.323 46.344C84.272 45.937 84.214 45.531 84.158 45.125V41.435C84.4243 40.6108 84.855 39.8491 85.424 39.196C86.97 37.544 89.482 37.396 91.729 37.129C94.9267 36.7477 98.0524 35.9057 101.009 34.629C102.363 34.044 103.897 33.359 105.247 33.955C106.009 34.379 106.649 34.9911 107.107 35.733L107.15 35.792L108.441 34.816C107.934 34.3281 107.545 33.7305 107.304 33.069C107.268 32.9894 107.256 32.9013 107.269 32.815C107.307 32.7147 107.381 32.6323 107.477 32.584C108.341 32.044 109.445 32.2 110.459 32.093C111.473 31.986 112.639 31.321 112.549 30.306C110.488 31.315 107.773 29.928 105.814 31.123C105.007 31.616 104.238 32.543 103.339 32.255C103.407 30.19 105.224 28.697 106.587 27.145C108.403 25.0684 109.574 22.5071 109.957 19.775C109.968 19.7042 109.959 19.6316 109.93 19.5661C109.901 19.5006 109.853 19.4449 109.793 19.406C109.581 19.28 109.393 19.468 109.273 19.642C108.77 20.5406 108.366 21.4911 108.068 22.477C107.504 23.881 106.628 25.1386 105.507 26.155C104.407 27.155 103.055 27.932 102.273 29.198C101.76 30.028 101.531 31.012 100.989 31.824C100.065 32.9622 98.8487 33.8266 97.47 34.324C97.243 34.43 96.977 34.538 96.756 34.336C96.6935 34.2742 96.645 34.1998 96.6138 34.1177C96.5826 34.0356 96.5693 33.9477 96.575 33.86C96.613 32.48 97.74 31.129 97.243 29.838C95.914 30.432 95.611 32.138 94.824 33.367C94.272 34.2227 93.4487 34.8682 92.486 35.2C91.2218 35.5126 89.9125 35.6002 88.618 35.459C87.3425 35.3648 86.063 35.5767 84.886 36.077C85.4612 34.4876 86.4712 33.0916 87.801 32.048C88.79 31.31 89.949 30.834 90.993 30.176C92.793 29.041 94.219 27.397 95.902 26.089C98.802 23.832 102.483 22.582 104.991 19.889C106.151 18.6417 107.004 17.1409 107.483 15.506C105.226 18.45 102.442 21.262 98.853 22.197C99.7148 20.6335 100.705 19.1443 101.814 17.745C102.685 16.7705 103.44 15.6988 104.065 14.551C104.374 13.9734 104.545 13.3323 104.565 12.6777C104.585 12.0231 104.454 11.3727 104.182 10.777C103.489 13.844 100.674 15.889 98.921 18.5C98.19 19.8046 97.385 21.0664 96.51 22.279C95.123 23.6574 93.5444 24.8285 91.823 25.756C90.1177 26.9012 88.4816 28.1461 86.923 29.484C86.9965 28.6217 86.9855 27.7542 86.89 26.894L86.744 25.058C86.7378 24.7497 86.6769 24.445 86.564 24.158C86.5054 24.0152 86.4106 23.8902 86.2889 23.7953C86.1672 23.7004 86.0227 23.6389 85.87 23.617C85.6215 25.4105 85.2469 27.1842 84.749 28.925C84.4077 29.8109 84.2763 30.7638 84.365 31.709C83.8404 32.2033 83.3506 32.7333 82.899 33.295C81.623 30.02 81.768 26.323 82.209 22.777C82.7138 21.1688 83.7702 19.7905 85.192 18.885C85.252 18.849 85.316 18.817 85.378 18.785C85.7893 19.2204 86.3536 19.4789 86.952 19.506C89.0303 19.9423 91.1813 19.892 93.237 19.359C94.258 19.021 95.323 18.273 95.353 17.197C93.8052 17.6088 92.1647 17.4959 90.688 16.876C91.0448 16.7002 91.382 16.487 91.694 16.24C92.564 15.54 93.172 14.552 94.056 13.87C95.709 12.597 98.198 12.476 99.421 10.788C100.308 9.56402 100.221 7.91002 100.048 6.40902L100.023 6.37702C99.4336 7.13236 98.8446 7.88769 98.256 8.64302C98.0873 8.89507 97.8642 9.10595 97.603 9.26002C97.3336 9.36385 97.0493 9.42361 96.761 9.43702C95.3636 9.72919 94.1138 10.5042 93.231 11.626C92.2824 12.8779 91.26 14.0721 90.169 15.202C90.0453 15.3161 89.9 15.4043 89.7416 15.4611C89.5832 15.518 89.415 15.5424 89.247 15.533C88.615 15.481 88.447 14.982 88.415 14.523C88.4423 13.156 89.01 11.8555 89.994 10.906C90.9715 9.97107 91.8267 8.916 92.539 7.76602C92.8833 7.18253 93.034 6.50493 92.9693 5.83049C92.9046 5.15605 92.6279 4.51943 92.179 4.01202C92.105 3.91963 92 3.8574 91.8834 3.83696C91.7669 3.81652 91.6469 3.8393 91.546 3.90102C91.437 3.9705 91.3452 4.06388 91.2776 4.17406C91.2101 4.28425 91.1685 4.40837 91.156 4.53702C90.747 7.69802 88.449 10.187 86.256 12.47C85.008 13.7713 83.7596 15.0714 82.511 16.37C82.498 16.315 82.487 16.257 82.473 16.203C82.1684 15.3475 81.9401 14.4668 81.791 13.571C81.7799 12.0875 82.3441 10.6574 83.365 9.58102C84.311 8.46002 85.473 7.53902 86.447 6.44202C87.4944 5.39451 88.1267 4.00295 88.227 2.52502C85.9322 4.21889 84.077 6.43826 82.817 8.99702C82.6738 8.73249 82.5852 8.44189 82.5565 8.14247C82.5278 7.84305 82.5596 7.54092 82.65 7.25402C82.8178 6.3414 82.7792 5.40278 82.537 4.50702C82.4122 4.06079 82.1944 3.64605 81.8977 3.29012C81.6011 2.93418 81.2324 2.64514 80.816 2.44202C81.4887 3.9392 81.5747 5.63443 81.057 7.19202C80.7858 8.10337 80.4602 8.99765 80.082 9.87002H80.09Z" fill="#1E5B2A"/></g></g><path id="Path 71" d="M142.891 84.77V67.67C142.91 67.4192 142.837 67.17 142.684 66.97C142.478 66.7748 142.22 66.6414 141.942 66.585V66.112H153.237C155.174 66.0255 157.109 66.312 158.937 66.956C160.797 67.7379 162.299 69.1842 163.151 71.013C163.906 72.6405 164.277 74.4195 164.235 76.213C164.235 79.6977 163.161 82.3533 161.014 84.18C160.096 84.959 159.016 85.523 157.852 85.831C156.342 86.1978 154.79 86.3659 153.236 86.331H141.942V85.857C142.22 85.8004 142.477 85.6675 142.684 85.473C142.836 85.2729 142.91 85.0238 142.891 84.773M147.312 82.997H152.866C154.236 83.0765 155.605 82.8276 156.86 82.271C158.771 81.2337 159.726 79.2147 159.726 76.214C159.848 74.4168 159.298 72.6383 158.182 71.224C157.622 70.5916 156.905 70.1189 156.103 69.854C155.052 69.5501 153.96 69.4128 152.866 69.447H147.312V82.997ZM120.466 72.484V84.774C120.447 85.0248 120.521 85.2737 120.673 85.474C120.88 85.6683 121.137 85.8012 121.415 85.858V86.332H115.468V85.858C115.746 85.8014 116.003 85.6685 116.21 85.474C116.362 85.274 116.436 85.0248 116.417 84.774V67.653C116.434 67.4083 116.36 67.166 116.21 66.972C116.004 66.7768 115.746 66.6434 115.468 66.587V66.114H122.35V66.587C121.924 66.6963 121.711 66.9233 121.712 67.268C121.745 67.5731 121.893 67.854 122.127 68.053L133.3 79.646V67.653C133.317 67.4083 133.243 67.166 133.093 66.972C132.886 66.777 132.629 66.6437 132.351 66.587V66.114H138.298V66.587C138.02 66.6434 137.762 66.7768 137.556 66.972C137.406 67.1662 137.333 67.4084 137.349 67.653V84.77C137.33 85.0208 137.404 85.2697 137.556 85.47C137.763 85.6645 138.02 85.7974 138.298 85.854V86.328H131.92V85.854C132.336 85.7653 132.544 85.553 132.543 85.217C132.543 85.017 132.301 84.6713 131.816 84.18L120.466 72.484ZM100.613 65.762C103.676 65.5978 106.685 66.6211 109.013 68.619C110.768 70.2794 111.896 72.4943 112.206 74.8899C112.517 77.2854 111.992 79.7149 110.719 81.768C108.671 85.0453 105.312 86.684 100.642 86.684C97.5927 86.8437 94.5996 85.8199 92.287 83.826C91.1809 82.8128 90.318 81.5626 89.763 80.169C89.2581 78.9122 89.0014 77.5695 89.007 76.215C88.989 74.2537 89.5294 72.3277 90.565 70.662C92.5537 67.4514 95.903 65.8167 100.613 65.758V65.762ZM100.628 69.196C98.8603 69.1378 97.1361 69.7509 95.802 70.912C95.0801 71.5953 94.505 72.4185 94.1121 73.3315C93.7191 74.2445 93.5164 75.228 93.5164 76.222C93.5164 77.216 93.7191 78.1995 94.1121 79.1125C94.505 80.0255 95.0801 80.8488 95.802 81.532C97.1743 82.643 98.8864 83.2491 100.652 83.2491C102.418 83.2491 104.13 82.643 105.502 81.532C106.27 80.8435 106.869 79.9883 107.255 79.032C107.608 78.1684 107.79 77.2441 107.789 76.311C107.839 75.2968 107.659 74.2845 107.263 73.3495C106.867 72.4145 106.265 71.581 105.502 70.911C104.142 69.7621 102.408 69.1507 100.628 69.192V69.196ZM72.6 86.325L65.132 72.362V84.77C65.1129 85.0208 65.1865 85.27 65.339 85.47C65.546 85.6643 65.8029 85.7972 66.081 85.854V86.328H60.129V85.854C60.4072 85.7974 60.6641 85.6645 60.871 85.47C61.0235 85.27 61.0971 85.0208 61.078 84.77V67.653C61.0949 67.4083 61.0212 67.166 60.871 66.972C60.6645 66.7768 60.4075 66.6434 60.129 66.587V66.114H67.929V66.587C67.732 66.6118 67.5512 66.7089 67.4218 66.8595C67.2925 67.0102 67.2237 67.2035 67.229 67.402C67.2415 67.6426 67.3129 67.8765 67.437 68.083L72.959 78.531L78.559 68.261C78.7529 67.9607 78.8795 67.6219 78.93 67.268C78.93 66.864 78.6827 66.637 78.188 66.587V66.114H85.843V66.587C85.5646 66.6437 85.3076 66.777 85.101 66.972C84.9508 67.166 84.8771 67.4083 84.894 67.653V84.77C84.8753 85.0208 84.9489 85.2697 85.101 85.47C85.308 85.6643 85.5649 85.7972 85.843 85.854V86.328H79.524V85.854C79.8003 85.8024 80.0555 85.671 80.258 85.476C80.4132 85.277 80.4897 85.0278 80.473 84.776V72.362L72.6 86.325ZM50.25 81.171H41.05L39.686 84.014C39.5292 84.3024 39.4335 84.62 39.405 84.947C39.405 85.3817 39.7357 85.6817 40.397 85.847V86.321H33.7V85.847C34.0329 85.7956 34.3447 85.6518 34.6 85.432C34.9002 85.0899 35.1409 84.6998 35.312 84.278L42.757 68.744C42.9582 68.3791 43.0796 67.9755 43.113 67.56C43.113 67.106 42.8263 66.78 42.253 66.582V66.109H49.432V66.582C48.8487 66.75 48.557 67.0413 48.557 67.456C48.5724 67.7993 48.6686 68.134 48.838 68.433L56.551 84.01C56.7668 84.5029 57.0569 84.9599 57.411 85.365C57.6868 85.6213 58.033 85.7892 58.405 85.847V86.321H50.955V85.847C51.6097 85.7377 51.937 85.4313 51.937 84.928C51.9007 84.6047 51.7986 84.2923 51.637 84.01L50.25 81.171ZM48.978 78.399L45.7 71.199L42.363 78.399H48.978ZM26.417 84.766V67.653C26.4333 67.4084 26.3597 67.1662 26.21 66.972C26.003 66.7776 25.7462 66.6443 25.468 66.587V66.114H31.787V66.587C31.5072 66.6354 31.2486 66.7671 31.045 66.965C30.8954 67.1623 30.8219 67.4069 30.838 67.654V84.771C30.8219 85.0228 30.8983 85.2717 31.053 85.471C31.2559 85.6653 31.5109 85.7963 31.787 85.848V86.322H25.467V85.848C25.7451 85.791 26.0019 85.6581 26.209 85.464C26.3597 85.2653 26.4332 85.0188 26.416 84.77L26.417 84.766ZM0.950001 84.766V67.666C0.968769 67.4152 0.895141 67.1663 0.743 66.966C0.536417 66.771 0.279402 66.6376 0.00100136 66.581V66.108H11.295C13.2315 66.0215 15.1666 66.308 16.995 66.952C18.855 67.7341 20.3574 69.1803 21.21 71.009C21.964 72.6367 22.3345 74.4157 22.293 76.209C22.293 79.6937 21.2193 82.3493 19.072 84.176C18.1541 84.955 17.0738 85.519 15.91 85.827C14.3996 86.1938 12.8479 86.3619 11.294 86.327H0V85.853C0.278151 85.7963 0.535051 85.6633 0.742001 85.469C0.894012 85.2691 0.967957 85.0205 0.950001 84.77V84.766ZM5.37 82.99H10.924C12.2945 83.0693 13.6641 82.8205 14.919 82.264C16.8297 81.2267 17.785 79.2077 17.785 76.207C17.9067 74.4096 17.356 72.6312 16.24 71.217C15.6804 70.5849 14.9635 70.1122 14.162 69.847C13.1109 69.5432 12.0186 69.4059 10.925 69.44H5.37V82.99Z" fill="white"/><path id="Path 72" d="M137.48 97.7L138.8 97.572C138.842 97.9431 139.013 98.2877 139.283 98.546C139.562 98.7654 139.911 98.8759 140.266 98.857C140.617 98.8825 140.966 98.7846 141.253 98.58C141.354 98.505 141.437 98.4078 141.494 98.2957C141.552 98.1837 141.583 98.0599 141.585 97.934C141.588 97.7884 141.538 97.6465 141.446 97.534C141.311 97.3968 141.143 97.2969 140.958 97.244C140.799 97.1887 140.437 97.091 139.872 96.951C139.318 96.8501 138.794 96.6233 138.342 96.288C138.146 96.1227 137.989 95.9162 137.882 95.6832C137.775 95.4502 137.721 95.1964 137.723 94.94C137.723 94.5988 137.824 94.2652 138.015 93.982C138.219 93.6764 138.511 93.4399 138.853 93.304C139.273 93.1384 139.722 93.0592 140.174 93.071C140.853 93.0215 141.527 93.2178 142.074 93.624C142.285 93.8075 142.454 94.0342 142.57 94.2889C142.686 94.5436 142.746 94.8202 142.745 95.1L141.39 95.16C141.363 94.8745 141.23 94.6094 141.017 94.417C140.763 94.2484 140.461 94.1689 140.157 94.191C139.831 94.1727 139.507 94.2574 139.232 94.433C139.164 94.4788 139.109 94.5409 139.071 94.6135C139.034 94.6862 139.015 94.7672 139.017 94.849C139.017 94.9277 139.035 95.0054 139.069 95.076C139.104 95.1466 139.154 95.2082 139.217 95.256C139.6 95.4824 140.023 95.6344 140.463 95.704C140.968 95.8067 141.46 95.9685 141.927 96.186C142.231 96.3413 142.488 96.5768 142.668 96.867C142.853 97.1963 142.946 97.5695 142.937 97.9472C142.928 98.3248 142.817 98.6931 142.616 99.013C142.399 99.3506 142.082 99.6118 141.709 99.76C141.242 99.9364 140.746 100.02 140.247 100.005C139.546 100.051 138.851 99.8426 138.292 99.417C137.81 98.9725 137.518 98.3594 137.476 97.705M128.047 99.885V93.185H130.901C131.429 93.1602 131.958 93.2213 132.466 93.366C132.791 93.4862 133.066 93.7123 133.247 94.008C133.445 94.3239 133.546 94.6904 133.54 95.063C133.556 95.5195 133.398 95.965 133.096 96.308C132.74 96.6653 132.269 96.8849 131.767 96.928C132.035 97.0787 132.28 97.2681 132.493 97.49C132.782 97.8293 133.041 98.1934 133.266 98.578L134.086 99.885H132.467L131.487 98.427C131.27 98.0836 131.031 97.7546 130.772 97.442C130.66 97.3176 130.52 97.2219 130.364 97.163C130.142 97.1033 129.912 97.078 129.682 97.088H129.407V99.888L128.047 99.885ZM129.403 96.018H130.403C130.811 96.0387 131.219 96.0115 131.621 95.937C131.776 95.8872 131.91 95.7873 132.002 95.653C132.097 95.5041 132.145 95.3297 132.139 95.153C132.148 94.955 132.083 94.7607 131.958 94.607C131.824 94.4615 131.643 94.3686 131.447 94.345C131.338 94.329 131.007 94.321 130.458 94.321H129.4L129.403 96.018ZM118.783 99.885V93.185H123.762V94.318H120.139V95.804H123.51V96.933H120.139V98.757H123.891V99.885H118.783ZM109.468 99.885V98.66L112.995 94.312H109.867V93.18H114.781V94.232L111.103 98.752H114.927V99.88L109.468 99.885ZM104.4 93.185H105.755V99.885H104.4V93.185ZM95.7449 99.885V93.239H97.1009V98.757H100.473V99.885H95.7449ZM90.0579 93.185H91.4139V99.885H90.0579V93.185ZM82.8779 99.885V94.317H80.8859V93.18H86.2269V94.313H84.2389V99.881L82.8779 99.885ZM71.5939 99.885V93.185H74.4479C74.976 93.1602 75.5045 93.2213 76.0129 93.366C76.338 93.4862 76.6132 93.7123 76.7939 94.008C76.9917 94.3239 77.0935 94.6904 77.0869 95.063C77.1035 95.5195 76.9446 95.965 76.6429 96.308C76.2871 96.6653 75.8163 96.8849 75.3139 96.928C75.5822 97.0787 75.8269 97.268 76.0399 97.49C76.3287 97.8293 76.587 98.1934 76.8119 98.578L77.6329 99.885H76.0109L75.0309 98.427C74.8141 98.0836 74.5753 97.7546 74.3159 97.442C74.2043 97.3176 74.0644 97.2219 73.9079 97.163C73.6858 97.1034 73.4558 97.0781 73.2259 97.088H72.9509V99.888L71.5939 99.885ZM72.9499 96.018H73.9499C74.3577 96.0387 74.7665 96.0115 75.1679 95.937C75.3228 95.8869 75.4567 95.7871 75.5489 95.653C75.6443 95.5041 75.6921 95.3297 75.6859 95.153C75.6951 94.9547 75.6302 94.7601 75.5039 94.607C75.3707 94.4615 75.1898 94.3686 74.9939 94.345C74.8849 94.329 74.5539 94.321 74.0049 94.321H72.9469L72.9499 96.018ZM62.3299 99.885V93.185H67.3089V94.318H63.6899V95.804H67.0619V96.933H63.6899V98.757H67.4419V99.885H62.3299ZM53.6059 99.885V93.185H58.2059V94.318H54.9679V95.905H57.7679V97.038H54.9679V99.886L53.6059 99.885ZM38.2159 99.885V93.185H41.0699C41.5976 93.1603 42.1259 93.2214 42.6339 93.366C42.959 93.4862 43.2342 93.7123 43.4149 94.008C43.6127 94.3239 43.7145 94.6904 43.7079 95.063C43.7245 95.5195 43.5656 95.965 43.2639 96.308C42.9081 96.6653 42.4373 96.8849 41.9349 96.928C42.2032 97.0787 42.4478 97.2681 42.6609 97.49C42.9497 97.8295 43.2084 98.1936 43.4339 98.578L44.2539 99.885H42.6369L41.6569 98.427C41.4401 98.0836 41.2013 97.7546 40.9419 97.442C40.8303 97.3176 40.6904 97.2219 40.5339 97.163C40.3114 97.1033 40.0811 97.078 39.8509 97.088H39.5769V99.888L38.2159 99.885ZM39.5719 96.018H40.5719C40.9797 96.0387 41.3885 96.0115 41.7899 95.937C41.9447 95.8874 42.0785 95.7874 42.1699 95.653C42.2656 95.5042 42.3137 95.3298 42.3079 95.153C42.3171 94.9547 42.2522 94.7601 42.1259 94.607C41.9927 94.4615 41.8118 94.3686 41.6159 94.345C41.5059 94.329 41.1763 94.321 40.6269 94.321H39.5769L39.5719 96.018ZM27.6369 96.575C27.6197 95.9872 27.7246 95.4022 27.9449 94.857C28.0966 94.5161 28.3083 94.2051 28.5699 93.939C28.8154 93.6819 29.1107 93.4778 29.4379 93.339C29.8981 93.1549 30.3905 93.0652 30.8859 93.075C31.3239 93.0549 31.7613 93.1262 32.1702 93.2844C32.5791 93.4426 32.9506 93.6843 33.2609 93.994C33.836 94.7179 34.1495 95.615 34.1506 96.5395C34.1517 97.464 33.8403 98.3618 33.2669 99.087C32.9586 99.3962 32.589 99.6374 32.1819 99.7954C31.7748 99.9533 31.3391 100.024 30.9029 100.004C30.4644 100.026 30.0262 99.9559 29.6161 99.799C29.206 99.6422 28.8331 99.4018 28.5209 99.093C28.2147 98.7518 27.9793 98.3532 27.8284 97.9202C27.6775 97.4873 27.6141 97.0287 27.6419 96.571L27.6369 96.575ZM29.0369 96.53C28.9921 97.1507 29.1796 97.7659 29.5629 98.256C29.7329 98.4404 29.9392 98.5876 30.1689 98.6882C30.3986 98.7889 30.6467 98.8408 30.8974 98.8408C31.1482 98.8408 31.3963 98.7889 31.6259 98.6882C31.8556 98.5876 32.062 98.4404 32.2319 98.256C32.6142 97.7571 32.7993 97.1348 32.7519 96.508C32.7997 95.8924 32.6196 95.2806 32.2459 94.789C32.0703 94.6084 31.8602 94.465 31.6281 94.3673C31.396 94.2695 31.1465 94.2194 30.8947 94.22C30.6428 94.2205 30.3936 94.2717 30.1619 94.3705C29.9302 94.4693 29.7207 94.6137 29.5459 94.795C29.1702 95.2898 28.99 95.9057 29.0399 96.525L29.0369 96.53ZM19.1899 99.885V93.185H23.7899V94.318H20.5489V95.905H23.3489V97.038H20.5489V99.886L19.1899 99.885Z" fill="#52B214"/></g></g><defs><clipPath id="clip0_380_2"><rect width="164.235" height="100" fill="white"/></clipPath></defs><style> @keyframes storm { 0% { transform: translate3d(0, 0, 0) translateZ(0); } 25% { transform: translate3d(0px, 4px, 0) translateZ(0); } 50% { transform: translate3d(0px, -1px, 0) translateZ(0); } 75% { transform: translate3d(0px, 2px, 0) translateZ(0); } 100% { transform: translate3d(0, 0, 0) translateZ(0); } }</style></svg>