<svg width="92" height="56" viewBox="0 0 92 56" fill="none" xmlns="http://www.w3.org/2000/svg"><g id="icon" style=" transform-origin: center; transform-box: fill-box; animation: storm 2s linear infinite alternate;"><path id="Path 1" d="M52.862 27.12C52.6378 26.7959 52.4923 26.4239 52.4371 26.0336C52.3819 25.6434 52.4185 25.2456 52.544 24.872C52.8029 24.1259 53.2484 23.4584 53.838 22.933C54.3103 23.3273 54.6474 23.8595 54.802 24.455C54.9496 24.8389 55.0094 25.251 54.977 25.661C54.9 26.0447 54.7221 26.4008 54.4616 26.6928C54.2011 26.9848 53.8675 27.202 53.495 27.322C53.3876 27.3695 53.2702 27.3901 53.153 27.382C53.0937 27.3776 53.0372 27.3551 52.9911 27.3175C52.945 27.28 52.9114 27.2292 52.895 27.172L52.862 27.12Z" fill="#52B214"/><path id="Path 2" d="M55.3741 34.929C55.2584 34.5521 55.2324 34.1535 55.298 33.7648C55.3636 33.3761 55.5191 33.008 55.7521 32.69C56.2241 32.0569 56.8508 31.5556 57.5721 31.234C57.9026 31.7524 58.0627 32.3611 58.0301 32.975C58.0538 33.3849 57.9854 33.7949 57.8301 34.175C57.6402 34.5178 57.3622 34.8037 57.0248 35.003C56.6875 35.2024 56.303 35.308 55.9111 35.309C55.7943 35.3216 55.6762 35.3054 55.5671 35.262C55.513 35.2395 55.4671 35.2012 55.4351 35.1521C55.4032 35.1031 55.3868 35.0455 55.3881 34.987L55.3741 34.929Z" fill="#52B214"/><path id="Path 4" d="M72.414 17.016C72.7108 16.7559 73.0643 16.5687 73.4462 16.4694C73.8282 16.3701 74.2281 16.3614 74.614 16.444C75.3851 16.6156 76.0993 16.9823 76.688 17.509C76.3506 18.0227 75.8611 18.4181 75.288 18.64C74.9235 18.8305 74.521 18.9368 74.11 18.951C73.7179 18.9196 73.3415 18.7836 73.0198 18.5573C72.6981 18.3309 72.443 18.0225 72.281 17.664C72.2208 17.5626 72.1864 17.4479 72.181 17.33C72.1794 17.2715 72.1956 17.2138 72.2274 17.1645C72.2591 17.1153 72.305 17.0768 72.359 17.054L72.414 17.016Z" fill="#52B214"/><path id="Path 5" d="M78.479 21.862C78.272 21.5267 78.1461 21.1477 78.1114 20.7552C78.0767 20.3627 78.1341 19.9674 78.279 19.601C78.5786 18.8691 79.0605 18.226 79.679 17.733C80.1281 18.1522 80.4354 18.701 80.558 19.303C80.6838 19.6946 80.7207 20.1093 80.666 20.517C80.5685 20.8964 80.3714 21.2428 80.0953 21.5206C79.8191 21.7984 79.4738 21.9973 79.095 22.097C78.9849 22.1393 78.866 22.1538 78.749 22.139C78.691 22.1305 78.6369 22.1047 78.5939 22.0649C78.5508 22.0251 78.5209 21.9732 78.508 21.916L78.479 21.862Z" fill="#52B214"/><path id="Path 6" d="M73.4649 10.649C73.469 10.2549 73.565 9.86725 73.7452 9.51676C73.9254 9.16627 74.1848 8.86265 74.5029 8.63C75.1453 8.16996 75.8948 7.88215 76.6799 7.79401C76.8378 8.38891 76.8056 9.01829 76.5879 9.594C76.4863 9.99288 76.2966 10.364 76.0329 10.68C75.7479 10.9487 75.3964 11.1366 75.0147 11.2245C74.633 11.3124 74.2348 11.297 73.8609 11.18C73.7461 11.1564 73.6387 11.1053 73.5479 11.031C73.5032 10.9928 73.471 10.9421 73.4555 10.8854C73.4399 10.8287 73.4418 10.7686 73.4609 10.713L73.4649 10.649Z" fill="#52B214"/><path id="Path 7" d="M65.4789 11.116C65.5048 10.7228 65.6221 10.3411 65.8214 10.0012C66.0207 9.66132 66.2965 9.3726 66.627 9.158C67.2938 8.73494 68.0575 8.48917 68.8459 8.444C68.9692 9.04532 68.9014 9.67014 68.6519 10.231C68.5287 10.6236 68.3192 10.9837 68.0389 11.285C67.7393 11.5385 67.3773 11.7073 66.9904 11.7738C66.6036 11.8402 66.206 11.802 65.8389 11.663C65.7272 11.6323 65.6243 11.5754 65.5389 11.497C65.4964 11.4565 65.467 11.4041 65.4547 11.3467C65.4424 11.2892 65.4477 11.2294 65.4699 11.175L65.4789 11.116Z" fill="#52B214"/><path id="Path 8" d="M66.948 6.504C66.9739 6.11083 67.0911 5.72912 67.2904 5.38922C67.4897 5.04932 67.7655 4.76059 68.096 4.546C68.7626 4.12253 69.5265 3.87673 70.315 3.832C70.4395 4.43432 70.3727 5.06049 70.124 5.623C70.0009 6.01541 69.7915 6.37523 69.511 6.676C69.2115 6.9297 68.8495 7.09863 68.4626 7.16528C68.0758 7.23192 67.6782 7.19384 67.311 7.055C67.1974 7.02504 67.0928 6.96809 67.006 6.889C66.9634 6.8485 66.9341 6.7961 66.9218 6.73866C66.9095 6.68121 66.9148 6.62139 66.937 6.567L66.948 6.504Z" fill="#52B214"/><path id="Path 9" d="M62.781 32.187C62.7664 31.7931 62.8437 31.4013 63.0069 31.0425C63.17 30.6837 63.4146 30.3679 63.721 30.12C64.3406 29.6298 65.0752 29.3062 65.855 29.18C66.0402 29.7661 66.0381 30.3952 65.849 30.98C65.7674 31.3827 65.5966 31.762 65.349 32.09C65.0772 32.3719 64.7351 32.5761 64.3581 32.6815C63.981 32.787 63.5826 32.7899 63.204 32.69C63.0877 32.6723 62.9775 32.6263 62.883 32.556C62.8367 32.5202 62.8024 32.4713 62.7845 32.4156C62.7667 32.3598 62.7662 32.3 62.783 32.244L62.781 32.187Z" fill="#52B214"/><path id="Path 10" d="M58.214 23.302C58.0966 22.9261 58.0683 22.528 58.1313 22.1392C58.1943 21.7504 58.3469 21.3817 58.577 21.062C59.0459 20.4263 59.6692 19.9207 60.388 19.593C60.7218 20.1096 60.8861 20.7176 60.858 21.332C60.8842 21.7412 60.8189 22.1512 60.667 22.532C60.4793 22.8759 60.2033 23.1634 59.8673 23.3649C59.5314 23.5663 59.1477 23.6744 58.756 23.678C58.6391 23.6921 58.5206 23.6769 58.411 23.634C58.3567 23.6118 58.3104 23.5736 58.2783 23.5245C58.2461 23.4754 58.2297 23.4177 58.231 23.359L58.214 23.302Z" fill="#52B214"/><path id="Path 11" d="M60.866 8.22002C60.7481 7.84397 60.7196 7.44562 60.7826 7.05661C60.8456 6.6676 60.9985 6.29864 61.229 5.97902C61.6978 5.34301 62.3216 4.83762 63.041 4.51102C63.3752 5.02745 63.5392 5.63559 63.51 6.25002C63.5371 6.65918 63.4721 7.06922 63.32 7.45001C63.1325 7.79406 62.8565 8.08178 62.5205 8.28342C62.1845 8.48507 61.8008 8.59333 61.409 8.59702C61.2921 8.6106 61.1737 8.5955 61.064 8.55302C61.0099 8.53054 60.9637 8.49229 60.9316 8.44324C60.8995 8.3942 60.8829 8.33662 60.884 8.27802L60.866 8.22002Z" fill="#52B214"/><path id="Path 12" d="M64.6451 4.972C64.5272 4.59595 64.4987 4.19761 64.5617 3.80859C64.6247 3.41958 64.7775 3.05062 65.008 2.731C65.4764 2.09503 66.0999 1.58963 66.8191 1.263C67.1536 1.77932 67.3179 2.38746 67.2891 3.002C67.3151 3.41121 67.2498 3.82109 67.098 4.202C66.9104 4.54585 66.6343 4.83337 66.2984 5.03484C65.9624 5.2363 65.5788 5.34441 65.187 5.348C65.0705 5.36158 64.9524 5.34648 64.8431 5.304C64.7888 5.28157 64.7425 5.24335 64.7103 5.19432C64.678 5.14529 64.6612 5.08769 64.6621 5.029L64.6451 4.972Z" fill="#52B214"/><path id="Path 13" d="M51.2541 22.816C51.1843 22.5351 51.181 22.2417 51.2446 21.9592C51.3081 21.6767 51.4367 21.413 51.6201 21.189C51.9914 20.7422 52.471 20.3979 53.0131 20.189C53.2361 20.5837 53.3295 21.0384 53.2801 21.489C53.2819 21.7908 53.216 22.0891 53.0871 22.362C52.9341 22.6059 52.7188 22.8046 52.4634 22.9375C52.2079 23.0704 51.9217 23.1327 51.6341 23.118C51.5482 23.1222 51.4624 23.1057 51.3841 23.07C51.3453 23.0512 51.313 23.0211 51.2916 22.9836C51.2702 22.9461 51.2606 22.903 51.2641 22.86L51.2541 22.816Z" fill="#52B214"/><path id="Path 14" d="M61.1351 29.489C60.9808 29.2442 60.8856 28.9668 60.8572 28.6789C60.8287 28.3909 60.8677 28.1003 60.9711 27.83C61.1838 27.2901 61.5312 26.8137 61.9801 26.446C62.3145 26.7496 62.5453 27.1504 62.6401 27.592C62.7367 27.8785 62.7678 28.1829 62.7311 28.483C62.6625 28.7625 62.5206 29.0186 62.32 29.225C62.1195 29.4313 61.8675 29.5805 61.5901 29.657C61.5099 29.688 61.4235 29.6993 61.3381 29.69C61.2954 29.6843 61.2555 29.6659 61.2234 29.6372C61.1913 29.6085 61.1685 29.5708 61.1581 29.529L61.1351 29.489Z" fill="#52B214"/><path id="Path 15" d="M70.9071 29.867C70.9342 29.5786 71.0282 29.3006 71.1815 29.0548C71.3347 28.809 71.5431 28.6023 71.7901 28.451C72.2882 28.1536 72.8541 27.9884 73.4341 27.971C73.5136 28.4161 73.4517 28.8749 73.2571 29.283C73.1588 29.5689 72.9979 29.8293 72.7861 30.045C72.5612 30.2244 72.2925 30.3406 72.0077 30.3816C71.7229 30.4226 71.4324 30.3868 71.1661 30.278C71.0831 30.254 71.0072 30.2101 70.9451 30.15C70.9147 30.1193 70.8942 30.0802 70.8864 30.0378C70.8785 29.9953 70.8837 29.9515 70.9011 29.912L70.9071 29.867Z" fill="#52B214"/><path id="Path 16" d="M70.067 8.654C70.0941 8.36577 70.1881 8.08784 70.3414 7.84223C70.4946 7.59662 70.703 7.39009 70.95 7.23901C71.4481 6.94159 72.014 6.77637 72.594 6.759C72.6732 7.20367 72.6116 7.66197 72.418 8.07C72.319 8.35557 72.1581 8.61577 71.947 8.832C71.7219 9.01144 71.453 9.12762 71.1681 9.16857C70.8832 9.20953 70.5925 9.17378 70.326 9.065C70.2431 9.04058 70.1674 8.9967 70.105 8.937C70.0746 8.9063 70.0543 8.86714 70.0466 8.82466C70.0389 8.78219 70.0443 8.73838 70.062 8.69901L70.067 8.654Z" fill="#52B214"/><path id="Path 17" d="M80.7379 17.157C80.765 16.8688 80.8589 16.5908 81.0122 16.3452C81.1655 16.0996 81.3739 15.8931 81.6209 15.742C82.119 15.4444 82.6849 15.2791 83.2649 15.262C83.3437 15.7068 83.2818 16.1651 83.0879 16.573C82.9896 16.8589 82.8287 17.1193 82.6169 17.335C82.392 17.5145 82.1233 17.6307 81.8386 17.6716C81.5538 17.7126 81.2632 17.6768 80.9969 17.568C80.9135 17.5442 80.8373 17.5003 80.7749 17.44C80.7446 17.4093 80.7242 17.3702 80.7165 17.3277C80.7089 17.2852 80.7142 17.2414 80.7319 17.202L80.7379 17.157Z" fill="#52B214"/><path id="Path 18" d="M77.9041 13.779C77.9313 13.4907 78.0254 13.2126 78.1789 12.967C78.3323 12.7214 78.5409 12.5149 78.7881 12.364C79.2858 12.0662 79.8514 11.9006 80.4311 11.883C80.5104 12.3281 80.4485 12.7868 80.2541 13.195C80.1558 13.4804 79.9953 13.7403 79.7841 13.956C79.559 14.1354 79.2902 14.2517 79.0053 14.2928C78.7205 14.3339 78.4298 14.2984 78.1631 14.19C78.0803 14.1655 78.0045 14.1217 77.9421 14.062C77.9118 14.0313 77.8915 13.9921 77.8838 13.9497C77.8761 13.9072 77.8815 13.8634 77.8991 13.824L77.9041 13.779Z" fill="#52B214"/><path id="Path 19" d="M77.274 8.986C77.3012 8.69777 77.3951 8.41984 77.5484 8.17423C77.7017 7.92862 77.91 7.72208 78.157 7.571C78.6552 7.27359 79.2211 7.10837 79.801 7.091C79.8803 7.53577 79.8184 7.99419 79.624 8.402C79.5261 8.68786 79.3655 8.94821 79.154 9.164C78.9288 9.34325 78.66 9.45931 78.3751 9.50026C78.0902 9.54121 77.7996 9.50557 77.533 9.397C77.4502 9.37259 77.3744 9.3287 77.312 9.269C77.2817 9.2383 77.2613 9.19914 77.2537 9.15666C77.246 9.11419 77.2513 9.07038 77.269 9.031L77.274 8.986Z" fill="#52B214"/><path id="Path 20" d="M84.02 19.13C84.3015 19.1976 84.5634 19.3299 84.7848 19.5163C85.0063 19.7027 85.1813 19.9382 85.296 20.204C85.5211 20.7405 85.6048 21.3259 85.539 21.904C85.0872 21.92 84.6417 21.7941 84.265 21.544C83.9961 21.4062 83.7614 21.2101 83.578 20.97C83.4325 20.7218 83.3557 20.4393 83.3557 20.1515C83.3557 19.8638 83.4325 19.5812 83.578 19.333C83.6136 19.2545 83.6678 19.1858 83.736 19.133C83.7704 19.1071 83.8118 19.0923 83.8548 19.0903C83.8978 19.0883 83.9404 19.0994 83.977 19.122L84.02 19.13Z" fill="#52B214"/><path id="Path 21" d="M81.3841 13.665C81.3666 13.243 81.4479 12.8227 81.6215 12.4376C81.7951 12.0525 82.0563 11.7133 82.3841 11.447C83.0456 10.919 83.8312 10.5689 84.6661 10.43C84.8677 11.0582 84.8677 11.7338 84.6661 12.362C84.5803 12.7942 84.3985 13.2015 84.1341 13.554C83.8438 13.8581 83.4775 14.0791 83.0732 14.1942C82.6688 14.3094 82.2411 14.3145 81.8341 14.209C81.7096 14.1901 81.5916 14.1414 81.4901 14.067C81.4398 14.029 81.4023 13.9766 81.3825 13.9168C81.3627 13.8569 81.3615 13.7925 81.3791 13.732L81.3841 13.665Z" fill="#52B214"/><path id="Path 22" d="M54.328 20.489C54.5862 20.3584 54.8714 20.2898 55.1608 20.2888C55.4501 20.2878 55.7358 20.3543 55.995 20.483C56.5122 20.7461 56.9536 21.1371 57.277 21.619C56.9439 21.9225 56.5244 22.1144 56.077 22.168C55.7828 22.237 55.477 22.2391 55.182 22.174C54.9102 22.0793 54.6686 21.9138 54.4821 21.6946C54.2956 21.4754 54.1709 21.2104 54.121 20.927C54.0973 20.844 54.0942 20.7565 54.112 20.672C54.1214 20.6297 54.1435 20.5913 54.1753 20.5618C54.2071 20.5324 54.2471 20.5133 54.29 20.507L54.328 20.489Z" fill="#52B214"/><path id="Path 23" d="M74.8269 22.519C74.8771 22.234 74.9929 21.9647 75.1653 21.7323C75.3377 21.4998 75.5618 21.3108 75.8199 21.18C76.34 20.9226 76.9174 20.8027 77.4969 20.832C77.5407 21.2821 77.4424 21.7346 77.2159 22.126C77.0951 22.4025 76.914 22.6485 76.6859 22.846C76.4471 23.0067 76.1698 23.1007 75.8825 23.1182C75.5953 23.1358 75.3085 23.0764 75.0519 22.946C74.9711 22.9157 74.899 22.8659 74.8419 22.801C74.8142 22.7682 74.7969 22.7278 74.7923 22.685C74.7876 22.6422 74.7959 22.5991 74.8159 22.561L74.8269 22.519Z" fill="#52B214"/><path id="Path 24" d="M70.993 5.88902C70.9426 5.52076 70.9789 5.1458 71.099 4.79405C71.2192 4.4423 71.4198 4.12348 71.685 3.86302C72.222 3.34621 72.8828 2.97605 73.604 2.78802C73.8342 3.32175 73.8912 3.91421 73.767 4.48203C73.7271 4.86793 73.6014 5.24002 73.399 5.57102C73.1692 5.86051 72.8663 6.08346 72.5216 6.21687C72.1769 6.35029 71.8029 6.38935 71.438 6.33002C71.3268 6.32262 71.219 6.2883 71.124 6.23002C71.0766 6.2007 71.0393 6.15759 71.0172 6.10646C70.995 6.05534 70.989 5.99865 71 5.94402L70.993 5.88902Z" fill="#52B214"/><path id="Path 25" d="M73.878 25.352C73.9289 25.0662 74.0458 24.7963 74.2194 24.5637C74.393 24.331 74.6185 24.1421 74.878 24.012C75.3982 23.7552 75.9755 23.6357 76.555 23.665C76.5988 24.1148 76.5005 24.567 76.274 24.958C76.1528 25.2349 75.9714 25.4812 75.743 25.679C75.5041 25.8395 75.2268 25.9333 74.9395 25.9509C74.6523 25.9685 74.3656 25.9092 74.109 25.779C74.0284 25.7485 73.9564 25.6992 73.899 25.635C73.8711 25.602 73.8538 25.5614 73.8493 25.5184C73.8448 25.4754 73.8534 25.432 73.874 25.394L73.878 25.352Z" fill="#52B214"/><path id="Path 26" d="M73.878 6.56C73.9282 6.27503 74.044 6.00566 74.2164 5.77324C74.3888 5.54082 74.6129 5.35175 74.871 5.221C75.3911 4.96355 75.9685 4.84373 76.548 4.873C76.5921 5.3228 76.4938 5.77506 76.267 6.166C76.1462 6.44331 75.9647 6.69002 75.736 6.888C75.4971 7.04827 75.2198 7.14201 74.9326 7.15959C74.6454 7.17716 74.3587 7.11794 74.102 6.988C74.0213 6.95682 73.9493 6.90676 73.892 6.84201C73.8642 6.80916 73.8469 6.76868 73.8425 6.72586C73.838 6.68305 73.8466 6.63988 73.867 6.602L73.878 6.56Z" fill="#52B214"/><path id="Path 27" d="M74.6189 15.36C74.6692 15.0749 74.7853 14.8053 74.9578 14.5727C75.1303 14.3402 75.3546 14.1509 75.6129 14.02C76.133 13.7628 76.7104 13.6433 77.2899 13.673C77.3337 14.1228 77.2354 14.575 77.0089 14.966C76.8881 15.2428 76.7071 15.4892 76.4789 15.687C76.2399 15.8473 75.9626 15.941 75.6754 15.9586C75.3883 15.9762 75.1016 15.917 74.8449 15.787C74.7639 15.7558 74.6916 15.7058 74.6339 15.641C74.6063 15.608 74.5893 15.5675 74.5851 15.5247C74.5808 15.4819 74.5894 15.4388 74.6099 15.401L74.6189 15.36Z" fill="#52B214"/><path id="Path 28" d="M58.6901 6.18102C58.5643 5.92023 58.5009 5.63371 58.5051 5.34418C58.5092 5.05466 58.5808 4.77008 58.7141 4.51302C58.9869 4.00092 59.3862 3.56716 59.8741 3.25302C60.1723 3.59269 60.3566 4.01723 60.4011 4.46702C60.4641 4.76245 60.4604 5.06823 60.3901 5.36202C60.2904 5.63186 60.1205 5.87021 59.898 6.0525C59.6754 6.23479 59.4083 6.3544 59.1241 6.39902C59.0403 6.4193 58.9529 6.4193 58.8691 6.39902C58.8272 6.3884 58.7895 6.36548 58.7608 6.33321C58.7321 6.30095 58.7138 6.26082 58.7081 6.21802L58.6901 6.18102Z" fill="#52B214"/><path id="Path 29" d="M61.6271 3.98101C61.5014 3.72032 61.4383 3.43393 61.4426 3.14456C61.4469 2.85519 61.5187 2.57082 61.6521 2.31401C61.9245 1.80166 62.3235 1.36756 62.8111 1.05301C63.1097 1.39242 63.294 1.8171 63.3381 2.26701C63.4018 2.56229 63.3987 2.86807 63.3291 3.16201C63.229 3.43189 63.0589 3.67027 62.8362 3.85268C62.6136 4.0351 62.3464 4.15498 62.0621 4.20001C61.9784 4.22077 61.8908 4.22077 61.8071 4.20001C61.7652 4.18983 61.7274 4.16717 61.6986 4.13503C61.6699 4.10289 61.6515 4.06279 61.6461 4.02001L61.6271 3.98101Z" fill="#52B214"/><path id="Path 30" d="M69.6199 16.379C69.5531 16.0974 69.5528 15.8041 69.6191 15.5224C69.6854 15.2406 69.8165 14.9782 70.0019 14.756C70.3773 14.3148 70.8592 13.9767 71.4019 13.774C71.6203 14.1702 71.7091 14.6248 71.6559 15.074C71.6556 15.376 71.5872 15.6741 71.4559 15.946C71.3007 16.1883 71.0837 16.3848 70.8272 16.5153C70.5708 16.6457 70.2841 16.7053 69.9969 16.688C69.9107 16.6915 69.8249 16.674 69.7469 16.637C69.7081 16.6181 69.676 16.5877 69.6549 16.55C69.6338 16.5123 69.6248 16.469 69.6289 16.426L69.6199 16.379Z" fill="#52B214"/><path id="Path 31" d="M70.4639 12.296C70.3971 12.0142 70.3968 11.7208 70.4631 11.4389C70.5294 11.157 70.6605 10.8944 70.8459 10.672C71.2213 10.2307 71.7032 9.89272 72.2459 9.69C72.4636 10.0864 72.5523 10.5408 72.4999 10.99C72.499 11.2919 72.4307 11.5899 72.2999 11.862C72.1446 12.1041 71.9275 12.3004 71.6711 12.4307C71.4146 12.5609 71.128 12.6204 70.8409 12.603C70.7548 12.6071 70.6689 12.5899 70.5909 12.553C70.5524 12.5334 70.5205 12.5028 70.4995 12.465C70.4785 12.4273 70.4692 12.3841 70.4729 12.341L70.4639 12.296Z" fill="#52B214"/><path id="Path 32" d="M70.2911 24.354C70.1192 24.1212 70.0039 23.8514 69.9544 23.5662C69.9049 23.281 69.9226 22.9882 70.0061 22.711C70.1788 22.1568 70.4907 21.6562 70.9121 21.257C71.2684 21.537 71.5279 21.9218 71.6541 22.357C71.7715 22.6356 71.8248 22.937 71.8101 23.239C71.7621 23.5228 71.6392 23.7887 71.4541 24.0092C71.269 24.2296 71.0284 24.3966 70.7571 24.493C70.679 24.5298 70.5934 24.5476 70.5071 24.545C70.4641 24.5423 70.4229 24.5268 70.3888 24.5004C70.3548 24.474 70.3294 24.438 70.3161 24.397L70.2911 24.354Z" fill="#52B214"/><path id="Path 33" d="M72.6021 14.529C72.537 14.2469 72.5386 13.9536 72.6067 13.6722C72.6747 13.3908 72.8073 13.1292 72.9941 12.908C73.373 12.4688 73.8581 12.1338 74.4031 11.935C74.6189 12.332 74.7049 12.7866 74.6491 13.235C74.6457 13.5376 74.5746 13.8355 74.4411 14.107C74.2842 14.3482 74.0659 14.5432 73.8085 14.6719C73.5512 14.8006 73.2641 14.8583 72.9771 14.839C72.8908 14.8419 72.805 14.8241 72.7271 14.787C72.6888 14.7673 72.6573 14.7365 72.6366 14.6987C72.616 14.661 72.6071 14.6179 72.6111 14.575L72.6021 14.529Z" fill="#52B214"/><path id="Path 34" d="M51.2139 2.47701C51.1504 2.20916 51.1504 1.93018 51.2137 1.6623C51.2771 1.39442 51.4021 1.14504 51.5789 0.934013C51.9368 0.514016 52.3965 0.192785 52.9139 0.00100708C53.1212 0.37777 53.2051 0.810047 53.1539 1.23701C53.1529 1.52424 53.0873 1.80757 52.9619 2.06601C52.8135 2.29561 52.6066 2.4815 52.3624 2.60454C52.1183 2.72758 51.8458 2.78332 51.5729 2.76601C51.4908 2.76981 51.4091 2.75332 51.3349 2.71801C51.298 2.70017 51.2675 2.67142 51.2474 2.63565C51.2274 2.59988 51.2188 2.55881 51.2229 2.51801L51.2139 2.47701Z" fill="#52B214"/><path id="Path 35" d="M47.545 2.813C47.3256 2.69163 47.1376 2.5208 46.9958 2.31406C46.8539 2.10732 46.7623 1.87036 46.728 1.622C46.6639 1.12349 46.7293 0.616854 46.918 0.151001C47.2987 0.241814 47.6414 0.44953 47.898 0.745003C48.0914 0.921746 48.2425 1.13982 48.34 1.383C48.4044 1.62388 48.4034 1.87759 48.3369 2.11791C48.2705 2.35824 48.141 2.57645 47.962 2.75C47.9138 2.80753 47.8524 2.85249 47.783 2.881C47.7488 2.89395 47.7115 2.89639 47.6758 2.88802C47.6402 2.87964 47.6079 2.86083 47.583 2.834L47.545 2.813Z" fill="#52B214"/><path id="Path 36" d="M57.45 11.106C57.2781 10.8731 57.1628 10.6034 57.1133 10.3182C57.0639 10.033 57.0816 9.74017 57.165 9.46301C57.338 8.90895 57.6499 8.40839 58.071 8.009C58.4273 8.28911 58.6867 8.67381 58.813 9.10901C58.9304 9.38728 58.9837 9.68836 58.969 9.99001C58.9208 10.2738 58.7979 10.5395 58.6128 10.7599C58.4277 10.9804 58.1872 11.1474 57.916 11.244C57.8383 11.2816 57.7524 11.2995 57.666 11.296C57.6229 11.2937 57.5815 11.2783 57.5474 11.2519C57.5133 11.2254 57.488 11.1892 57.475 11.148L57.45 11.106Z" fill="#52B214"/><path id="Path 37" d="M68.4689 3.35302C68.2967 3.12045 68.1813 2.85087 68.1319 2.56579C68.0824 2.2807 68.1002 1.988 68.1839 1.71102C68.3545 1.15734 68.6644 0.656702 69.0839 0.257019C69.4408 0.536702 69.7007 0.921518 69.8269 1.35703C69.9439 1.63572 69.9969 1.93713 69.9819 2.23902C69.9334 2.52079 69.8112 2.78469 69.6276 3.0039C69.4441 3.22311 69.2058 3.3898 68.9369 3.48702C68.859 3.52432 68.7732 3.54216 68.6869 3.53902C68.6439 3.5362 68.6028 3.5206 68.5688 3.49422C68.5347 3.46785 68.5094 3.43192 68.4959 3.39102L68.4689 3.35302Z" fill="#52B214"/><path id="Path 38" d="M66.739 27.784C66.5333 27.4579 66.4065 27.0884 66.3687 26.7048C66.3308 26.3211 66.383 25.934 66.521 25.574C66.8043 24.8553 67.267 24.2212 67.865 23.732C68.3101 24.137 68.6177 24.6708 68.745 25.259C68.8732 25.6404 68.9145 26.0456 68.866 26.445C68.7746 26.817 68.5856 27.158 68.3186 27.4327C68.0516 27.7074 67.7162 27.906 67.347 28.008C67.2399 28.05 67.1241 28.0648 67.01 28.051C66.9533 28.0433 66.9002 28.0188 66.8576 27.9807C66.815 27.9425 66.7848 27.8925 66.771 27.837L66.739 27.784Z" fill="#52B214"/><path id="Path 39" d="M75.1411 29.961C74.9354 29.6349 74.8086 29.2654 74.7708 28.8818C74.7329 28.4981 74.7851 28.111 74.9231 27.751C75.2068 27.0325 75.6694 26.3984 76.2671 25.909C76.7125 26.3137 77.0202 26.8477 77.1471 27.436C77.2753 27.8174 77.3166 28.2226 77.2681 28.622C77.1765 28.9939 76.9875 29.3348 76.7205 29.6095C76.4535 29.8842 76.1182 30.0828 75.7491 30.185C75.6422 30.2264 75.527 30.2415 75.4131 30.229C75.3562 30.2214 75.303 30.1968 75.2604 30.1584C75.2177 30.1201 75.1876 30.0697 75.1741 30.014L75.1411 29.961Z" fill="#52B214"/><path id="Path 40" d="M77.977 26.708C77.7714 26.3819 77.6446 26.0125 77.6066 25.6289C77.5686 25.2453 77.6204 24.8581 77.758 24.498C78.042 23.7796 78.5046 23.1456 79.102 22.656C79.5475 23.0611 79.8552 23.5954 79.982 24.184C80.1101 24.5651 80.1514 24.9699 80.103 25.369C80.0117 25.7411 79.8228 26.0821 79.5558 26.3568C79.2888 26.6316 78.9534 26.8301 78.584 26.932C78.4773 26.974 78.362 26.9891 78.248 26.976C78.1913 26.9684 78.1382 26.944 78.0956 26.9058C78.053 26.8677 78.0228 26.8175 78.009 26.762L77.977 26.708Z" fill="#52B214"/><path id="Path 41" d="M76.9521 17.037C76.9882 16.6532 77.1132 16.283 77.3171 15.9559C77.5211 15.6287 77.7984 15.3535 78.1271 15.152C78.7893 14.7559 79.5417 14.5353 80.3131 14.511C80.419 15.1036 80.3368 15.7145 80.0781 16.258C79.9468 16.6383 79.7327 16.9847 79.4511 17.272C79.1522 17.5111 78.7949 17.6662 78.4161 17.7212C78.0373 17.7762 77.6507 17.7292 77.2961 17.585C77.1862 17.5527 77.0856 17.4944 77.0031 17.415C76.9626 17.3744 76.9353 17.3225 76.9248 17.2661C76.9142 17.2098 76.921 17.1515 76.9441 17.099L76.9521 17.037Z" fill="#52B214"/><path id="Path 42" d="M80.912 23.875C80.7065 23.5489 80.5799 23.1794 80.542 22.7958C80.5042 22.4122 80.5562 22.025 80.694 21.665C80.9782 20.9452 81.4423 20.3103 82.042 19.821C82.4874 20.2258 82.7951 20.7597 82.922 21.348C83.0502 21.7294 83.0915 22.1346 83.043 22.534C82.9515 22.9059 82.7625 23.2467 82.4955 23.5212C82.2285 23.7958 81.8932 23.9942 81.524 24.096C81.4173 24.1383 81.3019 24.1534 81.188 24.14C81.1311 24.1325 81.0778 24.1081 81.035 24.0699C80.9922 24.0318 80.9619 23.9816 80.948 23.926L80.912 23.875Z" fill="#52B214"/><path id="Path 43" d="M62.9089 17.782C62.7032 17.456 62.5764 17.0864 62.5386 16.7028C62.5007 16.3191 62.5529 15.932 62.6909 15.572C62.9743 14.8533 63.437 14.2192 64.0349 13.73C64.4803 14.1348 64.788 14.6687 64.9149 15.257C65.0431 15.6384 65.0844 16.0436 65.0359 16.443C64.9445 16.815 64.7556 17.156 64.4886 17.4307C64.2216 17.7054 63.8862 17.904 63.5169 18.006C63.4096 18.0471 63.2941 18.0619 63.1799 18.049C63.1232 18.0415 63.0701 18.017 63.0274 17.9788C62.9848 17.9407 62.9547 17.8906 62.9409 17.835L62.9089 17.782Z" fill="#52B214"/><path id="Path 44" d="M47.7361 14.169C47.5303 13.8432 47.4034 13.4739 47.3654 13.0904C47.3273 12.7069 47.3793 12.3199 47.517 11.96C47.8007 11.2412 48.2633 10.6068 48.8611 10.117C49.3066 10.5217 49.6143 11.0556 49.741 11.644C49.8692 12.0254 49.9106 12.4306 49.862 12.83C49.7707 13.2021 49.5818 13.5431 49.3148 13.8178C49.0478 14.0925 48.7124 14.2911 48.343 14.393C48.2363 14.435 48.121 14.4501 48.007 14.437C47.9503 14.4294 47.8972 14.405 47.8546 14.3668C47.812 14.3287 47.7818 14.2785 47.768 14.223L47.7361 14.169Z" fill="#52B214"/><path id="Path 45" d="M50.3189 22.463C50.1027 22.4288 49.8976 22.3445 49.7199 22.2166C49.5422 22.0888 49.397 21.9211 49.2959 21.727C49.0961 21.3369 48.9997 20.902 49.0159 20.464C49.3555 20.4265 49.6982 20.4964 49.9959 20.664C50.2065 20.7519 50.3945 20.8863 50.5459 21.057C50.6708 21.235 50.7459 21.4432 50.7635 21.6599C50.781 21.8767 50.7405 22.0942 50.6459 22.29C50.6237 22.3517 50.5866 22.407 50.5379 22.451C50.5132 22.472 50.4828 22.4852 50.4506 22.489C50.4184 22.4927 50.3858 22.4868 50.3569 22.472L50.3189 22.463Z" fill="#52B214"/><path id="Path 46" d="M59.8731 31.524C59.6571 31.4892 59.4522 31.4046 59.2747 31.2769C59.0971 31.1491 58.9517 30.9817 58.8501 30.788C58.6503 30.3979 58.5539 29.963 58.5701 29.525C58.91 29.4877 59.253 29.5577 59.5511 29.725C59.7616 29.8135 59.9496 29.9481 60.1011 30.119C60.226 30.297 60.3011 30.5052 60.3187 30.7219C60.3362 30.9387 60.2957 31.1562 60.2011 31.352C60.1793 31.4134 60.1426 31.4684 60.0941 31.512C60.0696 31.5334 60.0392 31.5468 60.0069 31.5506C59.9746 31.5543 59.9419 31.5482 59.9131 31.533L59.8731 31.524Z" fill="#52B214"/><path id="Path 47" d="M63.695 28.033C63.5033 27.7974 63.3853 27.5105 63.3556 27.2082C63.3259 26.9058 63.3858 26.6015 63.528 26.333C63.8521 25.79 64.3261 25.3522 64.893 25.072C65.2984 25.3858 65.591 25.8227 65.727 26.317C65.8441 26.6053 65.8764 26.921 65.82 27.227C65.6861 27.5244 65.4719 27.7785 65.2014 27.9606C64.9309 28.1428 64.6149 28.2458 64.289 28.258C64.1787 28.2793 64.0653 28.2793 63.955 28.258C63.845 28.231 63.739 28.158 63.724 28.071L63.695 28.033Z" fill="#52B214"/><path id="Path 48" d="M85.0341 18.027C85.2524 17.8037 85.5195 17.6341 85.8146 17.5317C86.1096 17.4293 86.4244 17.3969 86.7341 17.437C87.3518 17.5224 87.9372 17.7652 88.4341 18.142C88.1983 18.5674 87.8363 18.9091 87.3981 19.12C87.1226 19.2926 86.812 19.4016 86.4891 19.439C86.1806 19.438 85.878 19.3545 85.6126 19.1971C85.3473 19.0398 85.1289 18.8142 84.9801 18.544C84.9268 18.4682 84.8925 18.3808 84.8801 18.289C84.8754 18.2429 84.8847 18.1965 84.9069 18.1558C84.929 18.1152 84.9629 18.0821 85.0041 18.061L85.0341 18.027Z" fill="#52B214"/><path id="Path 49" d="M72.1359 21.283C72.0039 21.1088 71.9146 20.9061 71.875 20.6911C71.8354 20.4761 71.8467 20.2548 71.908 20.045C72.0338 19.6251 72.2656 19.2445 72.581 18.94C72.8518 19.1479 73.0508 19.4353 73.15 19.762C73.2411 19.9715 73.2838 20.1988 73.275 20.427C73.2408 20.6417 73.1501 20.8434 73.0121 21.0115C72.8741 21.1795 72.6939 21.3077 72.49 21.383C72.4312 21.4119 72.3664 21.4263 72.3009 21.425C72.2684 21.4234 72.2371 21.412 72.2111 21.3924C72.1851 21.3728 72.1655 21.3458 72.1549 21.315L72.1359 21.283Z" fill="#52B214"/><path id="Path 50" d="M58.6471 16.031C58.6781 15.8144 58.7593 15.6081 58.8841 15.4284C59.0089 15.2488 59.174 15.1007 59.3661 14.996C59.753 14.7904 60.186 14.6871 60.6241 14.696C60.6674 15.0345 60.6041 15.3781 60.4431 15.679C60.3582 15.891 60.227 16.0813 60.0591 16.236C59.8828 16.3632 59.6757 16.4409 59.4593 16.4613C59.2429 16.4817 59.025 16.444 58.8281 16.352C58.7666 16.332 58.7107 16.2978 58.6651 16.252C58.6432 16.2278 58.6292 16.1975 58.6249 16.1652C58.6206 16.1329 58.6263 16.1 58.6411 16.071L58.6471 16.031Z" fill="#52B214"/><path id="Path 51" d="M54.6229 14.042C54.5575 13.8333 54.5415 13.6123 54.5762 13.3964C54.6109 13.1805 54.6954 12.9756 54.8229 12.798C55.0816 12.4458 55.4257 12.1653 55.8229 11.983C56.0089 12.2694 56.1002 12.6069 56.0839 12.948C56.0997 13.1757 56.0638 13.4041 55.9789 13.616C55.8748 13.8069 55.7218 13.9665 55.5354 14.0785C55.3491 14.1905 55.1363 14.2507 54.9189 14.253C54.8542 14.261 54.7886 14.2528 54.7279 14.229C54.6979 14.2164 54.6723 14.1951 54.6544 14.1678C54.6366 14.1406 54.6274 14.1086 54.6279 14.076L54.6229 14.042Z" fill="#52B214"/><path id="Path 52" d="M53.918 7.22903C53.7887 7.05264 53.7026 6.84841 53.6664 6.63273C53.6303 6.41705 53.6452 6.1959 53.71 5.98702C53.8417 5.56717 54.0793 5.18833 54.4 4.88702C54.6671 5.09958 54.8614 5.39002 54.956 5.71803C55.0434 5.92903 55.0824 6.15696 55.07 6.38503C55.0326 6.59916 54.9387 6.79943 54.7981 6.96519C54.6574 7.13095 54.4751 7.2562 54.27 7.32803C54.211 7.35591 54.1461 7.36896 54.081 7.36603C54.0485 7.36412 54.0173 7.35239 53.9916 7.33239C53.9659 7.31239 53.9468 7.28507 53.937 7.25403L53.918 7.22903Z" fill="#52B214"/><path id="Path 53" d="M50.2721 10.554C50.197 10.2334 50.1977 9.89964 50.2743 9.57934C50.3508 9.25904 50.5011 8.96103 50.7131 8.70902C51.1428 8.20806 51.6936 7.82556 52.3131 7.59802C52.5595 8.04906 52.6588 8.5658 52.5971 9.07603C52.5943 9.42003 52.5143 9.75902 52.3631 10.068C52.1853 10.3426 51.9374 10.5649 51.6451 10.7118C51.3528 10.8588 51.0266 10.9251 50.7001 10.904C50.6018 10.9084 50.5039 10.8884 50.4151 10.846C50.3714 10.8242 50.3353 10.7898 50.3116 10.7471C50.2879 10.7045 50.2776 10.6556 50.2821 10.607L50.2721 10.554Z" fill="#52B214"/><path id="Path 54" d="M59.4789 2.62003C59.35 2.44324 59.2642 2.23885 59.2281 2.02309C59.1919 1.80733 59.2066 1.58613 59.2709 1.37702C59.4037 0.959438 59.6413 0.582815 59.9609 0.28302C60.2286 0.495027 60.4231 0.785673 60.5169 1.11402C60.6042 1.32473 60.6435 1.55224 60.6319 1.78002C60.5943 1.99422 60.5004 2.19456 60.3598 2.36046C60.2192 2.52636 60.037 2.65184 59.8319 2.72402C59.7729 2.75191 59.708 2.76496 59.6429 2.76202C59.6103 2.75977 59.5792 2.74779 59.5535 2.72765C59.5279 2.7075 59.5088 2.68011 59.4989 2.64902L59.4789 2.62003Z" fill="#52B214"/><path id="Path 55" d="M57.6139 3.25301C57.4847 3.07641 57.3985 2.87207 57.3622 2.65627C57.3259 2.44046 57.3406 2.21917 57.4049 2.01002C57.5375 1.59232 57.7751 1.21564 58.0949 0.916016C58.3628 1.12788 58.5573 1.41858 58.6509 1.74702C58.7383 1.95772 58.7775 2.18523 58.7659 2.41302C58.7285 2.62725 58.6346 2.82764 58.494 2.99355C58.3534 3.15947 58.1711 3.28493 57.9659 3.35702C57.907 3.3848 57.842 3.3975 57.7769 3.39401C57.7445 3.39196 57.7133 3.38018 57.6877 3.36021C57.662 3.34023 57.6429 3.31298 57.6329 3.28201L57.6139 3.25301Z" fill="#52B214"/><path id="Path 56" d="M64.0151 2.41501C63.8858 2.23841 63.7996 2.03406 63.7633 1.81826C63.7271 1.60246 63.7417 1.38116 63.8061 1.172C63.9393 0.754591 64.1768 0.378053 64.4961 0.0780029C64.7638 0.29001 64.9582 0.580656 65.0521 0.909004C65.1397 1.11962 65.179 1.3472 65.167 1.575C65.1295 1.7892 65.0356 1.98954 64.895 2.15544C64.7544 2.32134 64.5722 2.44683 64.367 2.519C64.3081 2.54689 64.2432 2.55994 64.178 2.55701C64.1455 2.55462 64.1145 2.5426 64.0888 2.52247C64.0632 2.50234 64.0441 2.47502 64.0341 2.44401L64.0151 2.41501Z" fill="#52B214"/><path id="Path 57" d="M52.3059 34.436C52.3348 34.2192 52.4139 34.0122 52.5368 33.8313C52.6597 33.6505 52.823 33.5007 53.0139 33.394C53.3991 33.1843 53.8313 33.0762 54.2699 33.08C54.3162 33.4182 54.2561 33.7625 54.0979 34.065C54.0149 34.2779 53.8854 34.4695 53.7189 34.626C53.5438 34.7548 53.3375 34.8346 53.1213 34.8571C52.9051 34.8796 52.6868 34.844 52.4889 34.754C52.4272 34.7339 52.371 34.6997 52.3249 34.654C52.303 34.6299 52.2888 34.5997 52.2841 34.5675C52.2795 34.5352 52.2846 34.5023 52.2989 34.473L52.3059 34.436Z" fill="#52B214"/><path id="Path 58" d="M70.459 2.63801C70.4879 2.42123 70.5669 2.21416 70.6898 2.03328C70.8127 1.85239 70.9761 1.70267 71.167 1.59601C71.552 1.38588 71.9844 1.27778 72.423 1.28201C72.4698 1.62025 72.4097 1.96465 72.251 2.26701C72.1684 2.48008 72.0389 2.67182 71.872 2.82802C71.6969 2.95682 71.4906 3.03659 71.2744 3.05909C71.0582 3.08159 70.8399 3.04601 70.642 2.95601C70.5804 2.93635 70.5245 2.90204 70.479 2.85602C70.4567 2.83215 70.4421 2.80205 70.4373 2.76972C70.4325 2.73739 70.4376 2.70436 70.452 2.67502L70.459 2.63801Z" fill="#52B214"/><path id="Path 59" d="M66.384 19.416C66.4129 19.1993 66.492 18.9922 66.6149 18.8114C66.7378 18.6305 66.9011 18.4807 67.092 18.374C67.4769 18.1638 67.9094 18.056 68.348 18.061C68.3938 18.3993 68.3334 18.7436 68.175 19.046C68.0921 19.2584 67.963 19.4497 67.797 19.606C67.6219 19.7348 67.4156 19.8146 67.1994 19.8371C66.9832 19.8596 66.7649 19.824 66.567 19.734C66.5052 19.7142 66.449 19.6799 66.403 19.634C66.3811 19.6099 66.3669 19.5798 66.3623 19.5475C66.3576 19.5153 66.3628 19.4823 66.377 19.453L66.384 19.416Z" fill="#52B214"/><path id="Path 60" d="M78.74 11.168C78.7688 10.951 78.848 10.7437 78.971 10.5626C79.0941 10.3815 79.2578 10.2317 79.449 10.125C79.8336 9.91486 80.2657 9.80677 80.704 9.811C80.7508 10.1492 80.6906 10.4936 80.532 10.796C80.4493 11.0088 80.3202 11.2005 80.154 11.357C79.9785 11.4855 79.7721 11.5651 79.5558 11.5876C79.3395 11.6101 79.1211 11.5747 78.923 11.485C78.8614 11.4651 78.8056 11.4308 78.76 11.385C78.738 11.3609 78.7238 11.3308 78.7192 11.2985C78.7146 11.2662 78.7197 11.2333 78.734 11.204L78.74 11.168Z" fill="#52B214"/><path id="Path 61" d="M81.0981 10.538C81.1273 10.3212 81.2066 10.1142 81.3296 9.93332C81.4527 9.75246 81.6162 9.60273 81.8071 9.49601C82.1921 9.28575 82.6245 9.17765 83.0631 9.18201C83.109 9.52023 83.0489 9.86435 82.8911 10.167C82.8077 10.3797 82.6783 10.5713 82.5121 10.728C82.3371 10.857 82.1308 10.9369 81.9145 10.9594C81.6983 10.9819 81.4799 10.9462 81.2821 10.856C81.2204 10.836 81.1642 10.8017 81.1181 10.756C81.0962 10.7319 81.082 10.7018 81.0773 10.6695C81.0727 10.6372 81.0778 10.6043 81.0921 10.575L81.0981 10.538Z" fill="#52B214"/><path id="Path 62" d="M75.828 12.267C75.8569 12.0503 75.936 11.8432 76.0589 11.6623C76.1818 11.4815 76.3451 11.3317 76.536 11.225C76.921 11.0149 77.3534 10.9068 77.792 10.911C77.8385 11.2493 77.778 11.5938 77.619 11.896C77.5367 12.109 77.4075 12.3008 77.241 12.457C77.0659 12.5858 76.8596 12.6656 76.6434 12.6881C76.4272 12.7106 76.2089 12.675 76.011 12.585C75.9495 12.5651 75.8936 12.5308 75.848 12.485C75.8259 12.461 75.8115 12.4309 75.8067 12.3987C75.8019 12.3664 75.8069 12.3334 75.821 12.304L75.828 12.267Z" fill="#52B214"/><path id="Path 63" d="M81.5019 18.981C81.5608 18.7613 81.6724 18.5592 81.8269 18.3923C81.9815 18.2253 82.1744 18.0986 82.3889 18.023C82.825 17.8776 83.2917 17.8497 83.7419 17.942C83.7424 18.3009 83.6297 18.6508 83.4199 18.942C83.3048 19.1492 83.1424 19.3263 82.9459 19.459C82.7395 19.5596 82.5096 19.6026 82.2808 19.5832C82.0519 19.5638 81.8326 19.4829 81.646 19.349C81.5842 19.3144 81.5312 19.2662 81.4909 19.208C81.4709 19.1785 81.4602 19.1437 81.4602 19.108C81.4602 19.0723 81.4709 19.0375 81.4909 19.008L81.5019 18.981Z" fill="#52B214"/><path id="Path 64" d="M83.8869 16.879C83.7986 16.5098 83.8015 16.1247 83.8954 15.7568C83.9893 15.389 84.1714 15.0496 84.4259 14.768C84.9475 14.2068 85.6076 13.7929 86.34 13.568C86.6285 14.0951 86.7433 14.6998 86.668 15.296C86.6622 15.6913 86.5647 16.0799 86.383 16.431C86.161 16.7424 85.8589 16.9879 85.5087 17.1416C85.1586 17.2953 84.7734 17.3514 84.394 17.304C84.2763 17.3025 84.1606 17.2738 84.056 17.22C84.0044 17.1933 83.9619 17.1518 83.934 17.1009C83.906 17.0499 83.8938 16.9919 83.8989 16.934L83.8869 16.879Z" fill="#52B214"/><path id="Path 65" d="M49.0169 26.51C48.6714 26.3206 48.3749 26.053 48.1511 25.7287C47.9273 25.4044 47.7824 25.0323 47.7279 24.642C47.6257 23.8589 47.7255 23.0626 48.0179 22.329C48.6169 22.4704 49.1566 22.796 49.5609 23.26C49.8659 23.537 50.1051 23.8786 50.2609 24.26C50.3637 24.6382 50.3636 25.0371 50.2606 25.4152C50.1575 25.7934 49.9554 26.1372 49.6749 26.411C49.5995 26.5012 49.5035 26.5719 49.3949 26.617C49.3402 26.6386 49.2803 26.643 49.223 26.6298C49.1657 26.6166 49.1137 26.5863 49.0739 26.543L49.0169 26.51Z" fill="#52B214"/><path id="Path 66" d="M45.8189 4.96401C45.788 4.74884 45.7076 4.54376 45.584 4.36488C45.4605 4.186 45.2972 4.03818 45.1069 3.93301V5.39501C45.2893 5.39165 45.4695 5.354 45.6379 5.28401C45.6992 5.2642 45.7548 5.2299 45.7999 5.18401C45.822 5.15993 45.8361 5.12973 45.8406 5.0974C45.8451 5.06508 45.8396 5.03216 45.8249 5.00301L45.8189 4.96401Z" fill="#52B214"/><path id="Path 67" d="M45.1589 8.29602C45.2646 7.97771 45.246 7.63121 45.1069 7.32602V8.44002C45.1218 8.42577 45.1333 8.40846 45.1407 8.38928C45.1481 8.37011 45.1513 8.34954 45.1499 8.32902L45.1589 8.29602Z" fill="#52B214"/><path id="Path 68" d="M49.426 5.28101C49.7713 5.09128 50.0676 4.82365 50.2914 4.49938C50.5151 4.17512 50.6602 3.80315 50.715 3.41301C50.8165 2.62981 50.7163 1.83368 50.424 1.10001C49.8251 1.24161 49.2855 1.56717 48.881 2.03101C48.5761 2.30805 48.337 2.6497 48.181 3.03101C48.0784 3.40909 48.0787 3.80772 48.1817 4.18569C48.2847 4.56366 48.4868 4.90727 48.767 5.18101C48.8424 5.27122 48.9385 5.34189 49.047 5.38701C49.1017 5.40839 49.1615 5.41286 49.2188 5.39985C49.276 5.38683 49.328 5.35693 49.368 5.31401L49.426 5.28101Z" fill="#52B214"/><path id="Path 69" d="M55.302 4.23401C55.6472 4.04428 55.9435 3.77665 56.1673 3.45238C56.391 3.12812 56.5361 2.75614 56.591 2.366C56.6932 1.58289 56.5934 0.786635 56.301 0.053009C55.7022 0.194528 55.1627 0.519689 54.758 0.983002C54.4529 1.25991 54.2137 1.6016 54.058 1.983C53.9552 2.36123 53.9553 2.76006 54.0583 3.13823C54.1613 3.5164 54.3635 3.86017 54.644 4.134C54.7188 4.22441 54.8145 4.29513 54.923 4.34C54.9777 4.36155 55.0376 4.36601 55.0949 4.3528C55.1522 4.33959 55.2042 4.30933 55.244 4.26601L55.302 4.23401Z" fill="#52B214"/><g id="Group 192"><path id="Path 3" d="M87.4289 15.537C87.7257 15.2769 88.0792 15.0897 88.4612 14.9904C88.8431 14.8911 89.243 14.8824 89.6289 14.965C90.3998 15.1366 91.1139 15.503 91.7029 16.029C91.3656 16.5427 90.8761 16.9382 90.3029 17.16C89.9383 17.3501 89.5358 17.4563 89.1249 17.471C88.7344 17.438 88.3598 17.3014 88.0398 17.0751C87.7199 16.8488 87.4662 16.5412 87.3049 16.184C87.2447 16.0826 87.2104 15.9679 87.2049 15.85C87.2035 15.7916 87.2198 15.7342 87.2515 15.6851C87.2833 15.6361 87.3291 15.5977 87.3829 15.575L87.4289 15.537Z" fill="#52B214"/><path id="Path 70" d="M14.867 5.66801L13.119 15.511L32.601 6.07302L26.882 1.08302L14.867 5.66801ZM28.492 15.859H43.824L33.557 6.90602L28.492 15.859ZM14.525 15.859H27.425L32.296 7.24902L14.525 15.859ZM27.395 16.788H13.64L37.789 40.436L27.395 16.788ZM44.481 16.788H28.408L39.038 40.97L44.481 16.788ZM43.039 1.01602H28.21L33.51 5.63402L43.039 1.01602ZM13.795 6.39302L1.02997 15.859H12.115L13.795 6.39302ZM21.047 1.01602L17.435 3.69402L24.456 1.01602H21.047ZM31.257 43.216L43.804 54.125L38.79 42.716L15.463 19.87L31.257 43.216ZM0.865967 16.788L28.537 40.846L12.258 16.788H0.865967ZM45.066 5.71902V1.06502L35.458 5.71902H45.066ZM45.09 9.87002L45.066 6.64802H34.67L45.345 15.957C45.4271 16.0208 45.4855 16.1102 45.511 16.211V16.425L39.662 42.398L45.483 55.64L45.603 55.861L46.182 55.424C46.2485 54.6515 46.3823 53.8862 46.582 53.137C46.742 52.895 46.912 52.658 47.082 52.423C47.7175 51.6244 48.2043 50.7179 48.519 49.747C48.5747 49.5376 48.6128 49.3238 48.633 49.108L48.781 49.084C49.2772 50.2795 49.5516 51.5553 49.591 52.849L50.665 52.037C50.652 51.853 50.637 51.672 50.618 51.493C50.5777 51.1118 50.5143 50.7335 50.428 50.36C50.8 50.697 51.178 51.029 51.528 51.384L52.396 50.728C52.1377 50.4384 51.864 50.163 51.576 49.903C50.8619 49.324 50.2259 48.6547 49.684 47.912C50.318 48.058 50.967 48.16 51.616 48.262L52.194 48.411C52.9904 48.5951 53.7751 48.8265 54.544 49.104L55.644 48.272C54.9698 47.8997 54.2438 47.6301 53.49 47.472C53.296 47.429 53.101 47.393 52.904 47.356C53.118 47.327 53.33 47.304 53.54 47.288C54.6559 47.2084 55.7765 47.2228 56.89 47.331L58.19 46.349C57.1673 46.2107 56.1369 46.1358 55.105 46.125C53.8155 46.1308 52.5293 46.2533 51.262 46.491C50.887 46.558 50.505 46.625 50.123 46.675C49.8503 46.5764 49.5836 46.466 49.323 46.344C49.272 45.937 49.214 45.531 49.158 45.125V41.435C49.4243 40.6108 49.855 39.8491 50.424 39.196C51.97 37.544 54.482 37.396 56.729 37.129C59.9267 36.7477 63.0524 35.9057 66.009 34.629C67.363 34.044 68.897 33.359 70.247 33.955C71.0087 34.379 71.6491 34.9911 72.107 35.733L72.15 35.792L73.441 34.816C72.9336 34.3281 72.5446 33.7305 72.304 33.069C72.2684 32.9894 72.2563 32.9013 72.269 32.815C72.307 32.7147 72.3812 32.6323 72.477 32.584C73.341 32.044 74.445 32.2 75.459 32.093C76.473 31.986 77.639 31.321 77.549 30.306C75.488 31.315 72.773 29.928 70.814 31.123C70.007 31.616 69.238 32.543 68.339 32.255C68.407 30.19 70.224 28.697 71.587 27.145C73.4031 25.0684 74.5743 22.5071 74.957 19.775C74.9684 19.7042 74.959 19.6316 74.9299 19.5661C74.9008 19.5006 74.8532 19.4449 74.793 19.406C74.581 19.28 74.393 19.468 74.273 19.642C73.7698 20.5406 73.3657 21.4911 73.068 22.477C72.5036 23.881 71.6279 25.1386 70.507 26.155C69.407 27.155 68.055 27.932 67.273 29.198C66.76 30.028 66.531 31.012 65.989 31.824C65.0655 32.9622 63.8487 33.8266 62.47 34.324C62.243 34.43 61.977 34.538 61.756 34.336C61.6935 34.2742 61.645 34.1998 61.6138 34.1177C61.5826 34.0356 61.5693 33.9477 61.575 33.86C61.613 32.48 62.74 31.129 62.243 29.838C60.914 30.432 60.611 32.138 59.824 33.367C59.272 34.2227 58.4487 34.8682 57.486 35.2C56.2218 35.5126 54.9125 35.6002 53.618 35.459C52.3425 35.3648 51.063 35.5767 49.886 36.077C50.4612 34.4876 51.4712 33.0916 52.801 32.048C53.79 31.31 54.949 30.834 55.993 30.176C57.793 29.041 59.219 27.397 60.902 26.089C63.802 23.832 67.483 22.582 69.991 19.889C71.1511 18.6417 72.0044 17.1409 72.483 15.506C70.226 18.45 67.442 21.262 63.853 22.197C64.7148 20.6335 65.7052 19.1443 66.814 17.745C67.6847 16.7705 68.4401 15.6988 69.065 14.551C69.3736 13.9734 69.5447 13.3323 69.565 12.6777C69.5853 12.0231 69.4542 11.3727 69.182 10.777C68.489 13.844 65.674 15.889 63.921 18.5C63.19 19.8046 62.385 21.0664 61.51 22.279C60.123 23.6574 58.5444 24.8285 56.823 25.756C55.1177 26.9012 53.4816 28.1461 51.923 29.484C51.9965 28.6217 51.9855 27.7542 51.89 26.894L51.744 25.058C51.7378 24.7497 51.6769 24.445 51.564 24.158C51.5054 24.0152 51.4106 23.8902 51.2889 23.7953C51.1672 23.7004 51.0227 23.6389 50.87 23.617C50.6215 25.4105 50.2469 27.1842 49.749 28.925C49.4077 29.8109 49.2763 30.7638 49.365 31.709C48.8404 32.2033 48.3506 32.7333 47.899 33.295C46.623 30.02 46.768 26.323 47.209 22.777C47.7138 21.1688 48.7702 19.7905 50.192 18.885C50.252 18.849 50.316 18.817 50.378 18.785C50.7893 19.2204 51.3536 19.4789 51.952 19.506C54.0303 19.9423 56.1813 19.892 58.237 19.359C59.258 19.021 60.323 18.273 60.353 17.197C58.8052 17.6088 57.1647 17.4959 55.688 16.876C56.0448 16.7002 56.382 16.487 56.694 16.24C57.564 15.54 58.172 14.552 59.056 13.87C60.709 12.597 63.198 12.476 64.421 10.788C65.308 9.56402 65.221 7.91002 65.048 6.40902L65.023 6.37702C64.4336 7.13236 63.8446 7.88769 63.256 8.64302C63.0873 8.89507 62.8642 9.10595 62.603 9.26002C62.3336 9.36385 62.0493 9.42361 61.761 9.43702C60.3636 9.72919 59.1138 10.5042 58.231 11.626C57.2824 12.8779 56.26 14.0721 55.169 15.202C55.0453 15.3161 54.9 15.4043 54.7416 15.4611C54.5832 15.518 54.415 15.5424 54.247 15.533C53.615 15.481 53.447 14.982 53.415 14.523C53.4423 13.156 54.01 11.8555 54.994 10.906C55.9715 9.97107 56.8267 8.916 57.539 7.76602C57.8833 7.18253 58.034 6.50493 57.9693 5.83049C57.9046 5.15605 57.6279 4.51943 57.179 4.01202C57.105 3.91963 57 3.8574 56.8834 3.83696C56.7669 3.81652 56.6469 3.8393 56.546 3.90102C56.437 3.9705 56.3452 4.06388 56.2776 4.17406C56.2101 4.28425 56.1685 4.40837 56.156 4.53702C55.747 7.69802 53.449 10.187 51.256 12.47C50.008 13.7713 48.7596 15.0714 47.511 16.37C47.498 16.315 47.487 16.257 47.473 16.203C47.1684 15.3475 46.9401 14.4668 46.791 13.571C46.7799 12.0875 47.3441 10.6574 48.365 9.58102C49.311 8.46002 50.473 7.53902 51.447 6.44202C52.4944 5.39451 53.1267 4.00295 53.227 2.52502C50.9322 4.21889 49.077 6.43826 47.817 8.99702C47.6738 8.73249 47.5852 8.44189 47.5565 8.14247C47.5278 7.84305 47.5596 7.54092 47.65 7.25402C47.8178 6.3414 47.7792 5.40278 47.537 4.50702C47.4122 4.06079 47.1944 3.64605 46.8977 3.29012C46.6011 2.93418 46.2324 2.64514 45.816 2.44202C46.4887 3.9392 46.5747 5.63443 46.057 7.19202C45.7858 8.10337 45.4602 8.99765 45.082 9.87002H45.09Z" fill="#1E5B2A"/></g></g><style> @keyframes storm { 0% { transform: translate3d(0, 0, 0) translateZ(0) scale(0.9); } 25% { transform: translate3d(0px, 4px, 0) translateZ(0) scale(0.9); } 50% { transform: translate3d(0px, -1px, 0) translateZ(0) scale(0.9); } 75% { transform: translate3d(0px, 2px, 0) translateZ(0) scale(0.9); } 100% { transform: translate3d(0, 0, 0) translateZ(0) scale(0.9); } }</style></svg>